<svg xmlns = "http://www.w3.org/2000/svg" width = "1000" height = "1000">
<g>
<polygon points = "733.275, 439.311 604.996, 881.593 655.973, 1000.000 1000.000, 1000.000 1000.000, 523.317 "
fill = "none" stroke = "black"/>
</g>
<g>
<polygon points = "598.270, 261.603 674.318, 304.415 1000.000, 165.431 1000.000, 0.000 517.274, 0.000 "
fill = "none" stroke = "black"/>
</g>
<g>
<polygon points = "141.227, 195.713 283.776, 366.868 490.145, 342.927 598.270, 261.603 517.274, 0.000 340.640, 0.000 "
fill = "none" stroke = "black"/>
</g>
<g>
<polygon points = "490.145, 342.927 419.854, 712.280 604.996, 881.593 733.275, 439.311 674.318, 304.415 598.270, 261.603 "
fill = "none" stroke = "black"/>
</g>
<g>
<polygon points = "337.960, 685.742 419.854, 712.280 490.145, 342.927 283.776, 366.868 232.167, 489.968 "
fill = "none" stroke = "black"/>
</g>
<g>
<polygon points = "674.318, 304.415 733.275, 439.311 1000.000, 523.317 1000.000, 165.431 "
fill = "none" stroke = "black"/>
</g>
<g>
<polygon points = "232.167, 489.968 283.776, 366.868 141.227, 195.713 0.000, 207.529 0.000, 506.957 "
fill = "none" stroke = "black"/>
</g>
<g>
<polygon points = "419.854, 712.280 337.960, 685.742 0.000, 796.221 0.000, 1000.000 655.973, 1000.000 604.996, 881.593 "
fill = "none" stroke = "black"/>
</g>
<g>
<polygon points = "337.960, 685.742 232.167, 489.968 0.000, 506.957 0.000, 796.221 "
fill = "none" stroke = "black"/>
</g>
<g>
<polygon points = "0.000, 207.529 141.227, 195.713 340.640, 0.000 0.000, 0.000 "
fill = "none" stroke = "black"/>
</g>
<g>
<polygon points = "733.275, 439.311 604.996, 881.593 655.973, 1000.000 1000.000, 1000.000 1000.000, 523.317 "
fill = "none" stroke = "black"/>
</g>
<g>
<polygon points = "598.270, 261.603 674.318, 304.415 1000.000, 165.431 1000.000, 0.000 517.274, 0.000 "
fill = "none" stroke = "black"/>
</g>
<g>
<polygon points = "141.227, 195.713 283.776, 366.868 490.145, 342.927 598.270, 261.603 517.274, 0.000 340.640, 0.000 "
fill = "none" stroke = "black"/>
</g>
<g>
<polygon points = "490.145, 342.927 419.854, 712.280 604.996, 881.593 733.275, 439.311 674.318, 304.415 598.270, 261.603 "
fill = "none" stroke = "black"/>
</g>
<g>
<polygon points = "337.960, 685.742 419.854, 712.280 490.145, 342.927 283.776, 366.868 232.167, 489.968 "
fill = "none" stroke = "black"/>
</g>
<g>
<polygon points = "674.318, 304.415 733.275, 439.311 1000.000, 523.317 1000.000, 165.431 "
fill = "none" stroke = "black"/>
</g>
<g>
<polygon points = "232.167, 489.968 283.776, 366.868 141.227, 195.713 0.000, 207.529 0.000, 506.957 "
fill = "none" stroke = "black"/>
</g>
<g>
<polygon points = "419.854, 712.280 337.960, 685.742 0.000, 796.221 0.000, 1000.000 655.973, 1000.000 604.996, 881.593 "
fill = "none" stroke = "black"/>
</g>
<g>
<polygon points = "337.960, 685.742 232.167, 489.968 0.000, 506.957 0.000, 796.221 "
fill = "none" stroke = "black"/>
</g>
<g>
<polygon points = "0.000, 207.529 141.227, 195.713 340.640, 0.000 0.000, 0.000 "
fill = "none" stroke = "black"/>
</g>
<g>
<polygon points = "733.275, 439.311 604.996, 881.593 655.973, 1000.000 1000.000, 1000.000 1000.000, 523.317 "
fill = "none" stroke = "black"/>
</g>
<g>
<polygon points = "598.270, 261.603 674.318, 304.415 1000.000, 165.431 1000.000, 0.000 517.274, 0.000 "
fill = "none" stroke = "black"/>
</g>
<g>
<polygon points = "141.227, 195.713 283.776, 366.868 490.145, 342.927 598.270, 261.603 517.274, 0.000 340.640, 0.000 "
fill = "none" stroke = "black"/>
</g>
<g>
<polygon points = "490.145, 342.927 419.854, 712.280 604.996, 881.593 733.275, 439.311 674.318, 304.415 598.270, 261.603 "
fill = "none" stroke = "black"/>
</g>
<g>
<polygon points = "337.960, 685.742 419.854, 712.280 490.145, 342.927 283.776, 366.868 232.167, 489.968 "
fill = "none" stroke = "black"/>
</g>
<g>
<polygon points = "674.318, 304.415 733.275, 439.311 1000.000, 523.317 1000.000, 165.431 "
fill = "none" stroke = "black"/>
</g>
<g>
<polygon points = "232.167, 489.968 283.776, 366.868 141.227, 195.713 0.000, 207.529 0.000, 506.957 "
fill = "none" stroke = "black"/>
</g>
<g>
<polygon points = "419.854, 712.280 337.960, 685.742 0.000, 796.221 0.000, 1000.000 655.973, 1000.000 604.996, 881.593 "
fill = "none" stroke = "black"/>
</g>
<g>
<polygon points = "337.960, 685.742 232.167, 489.968 0.000, 506.957 0.000, 796.221 "
fill = "none" stroke = "black"/>
</g>
<g>
<polygon points = "0.000, 207.529 141.227, 195.713 340.640, 0.000 0.000, 0.000 "
fill = "none" stroke = "black"/>
</g>
<g>
<polygon points = "733.275, 439.311 604.996, 881.593 655.973, 1000.000 1000.000, 1000.000 1000.000, 523.317 "
fill = "none" stroke = "black"/>
</g>
<g>
<polygon points = "598.270, 261.603 674.318, 304.415 1000.000, 165.431 1000.000, 0.000 517.274, 0.000 "
fill = "none" stroke = "black"/>
</g>
<g>
<polygon points = "141.227, 195.713 283.776, 366.868 490.145, 342.927 598.270, 261.603 517.274, 0.000 340.640, 0.000 "
fill = "none" stroke = "black"/>
</g>
<g>
<polygon points = "490.145, 342.927 419.854, 712.280 604.996, 881.593 733.275, 439.311 674.318, 304.415 598.270, 261.603 "
fill = "none" stroke = "black"/>
</g>
<g>
<polygon points = "337.960, 685.742 419.854, 712.280 490.145, 342.927 283.776, 366.868 232.167, 489.968 "
fill = "none" stroke = "black"/>
</g>
<g>
<polygon points = "674.318, 304.415 733.275, 439.311 1000.000, 523.317 1000.000, 165.431 "
fill = "none" stroke = "black"/>
</g>
<g>
<polygon points = "232.167, 489.968 283.776, 366.868 141.227, 195.713 0.000, 207.529 0.000, 506.957 "
fill = "none" stroke = "black"/>
</g>
<g>
<polygon points = "419.854, 712.280 337.960, 685.742 0.000, 796.221 0.000, 1000.000 655.973, 1000.000 604.996, 881.593 "
fill = "none" stroke = "black"/>
</g>
<g>
<polygon points = "337.960, 685.742 232.167, 489.968 0.000, 506.957 0.000, 796.221 "
fill = "none" stroke = "black"/>
</g>
<g>
<polygon points = "0.000, 207.529 141.227, 195.713 340.640, 0.000 0.000, 0.000 "
fill = "none" stroke = "black"/>
</g>
<g>
<polygon points = "733.275, 439.311 604.996, 881.593 655.973, 1000.000 1000.000, 1000.000 1000.000, 523.317 "
fill = "none" stroke = "black"/>
</g>
<g>
<polygon points = "598.270, 261.603 674.318, 304.415 1000.000, 165.431 1000.000, 0.000 517.274, 0.000 "
fill = "none" stroke = "black"/>
</g>
<g>
<polygon points = "141.227, 195.713 283.776, 366.868 490.145, 342.927 598.270, 261.603 517.274, 0.000 340.640, 0.000 "
fill = "none" stroke = "black"/>
</g>
<g>
<polygon points = "490.145, 342.927 419.854, 712.280 604.996, 881.593 733.275, 439.311 674.318, 304.415 598.270, 261.603 "
fill = "none" stroke = "black"/>
</g>
<g>
<polygon points = "337.960, 685.742 419.854, 712.280 490.145, 342.927 283.776, 366.868 232.167, 489.968 "
fill = "none" stroke = "black"/>
</g>
<g>
<polygon points = "674.318, 304.415 733.275, 439.311 1000.000, 523.317 1000.000, 165.431 "
fill = "none" stroke = "black"/>
</g>
<g>
<polygon points = "232.167, 489.968 283.776, 366.868 141.227, 195.713 0.000, 207.529 0.000, 506.957 "
fill = "none" stroke = "black"/>
</g>
<g>
<polygon points = "419.854, 712.280 337.960, 685.742 0.000, 796.221 0.000, 1000.000 655.973, 1000.000 604.996, 881.593 "
fill = "none" stroke = "black"/>
</g>
<g>
<polygon points = "337.960, 685.742 232.167, 489.968 0.000, 506.957 0.000, 796.221 "
fill = "none" stroke = "black"/>
</g>
<g>
<polygon points = "0.000, 207.529 141.227, 195.713 340.640, 0.000 0.000, 0.000 "
fill = "none" stroke = "black"/>
</g>
<g>
<polygon points = "733.275, 439.311 604.996, 881.593 655.973, 1000.000 1000.000, 1000.000 1000.000, 523.317 "
fill = "none" stroke = "black"/>
</g>
<g>
<polygon points = "598.270, 261.603 674.318, 304.415 1000.000, 165.431 1000.000, 0.000 517.274, 0.000 "
fill = "none" stroke = "black"/>
</g>
<g>
<polygon points = "141.227, 195.713 283.776, 366.868 490.145, 342.927 598.270, 261.603 517.274, 0.000 340.640, 0.000 "
fill = "none" stroke = "black"/>
</g>
<g>
<polygon points = "490.145, 342.927 419.854, 712.280 604.996, 881.593 733.275, 439.311 674.318, 304.415 598.270, 261.603 "
fill = "none" stroke = "black"/>
</g>
<g>
<polygon points = "337.960, 685.742 419.854, 712.280 490.145, 342.927 283.776, 366.868 232.167, 489.968 "
fill = "none" stroke = "black"/>
</g>
<g>
<polygon points = "674.318, 304.415 733.275, 439.311 1000.000, 523.317 1000.000, 165.431 "
fill = "none" stroke = "black"/>
</g>
<g>
<polygon points = "232.167, 489.968 283.776, 366.868 141.227, 195.713 0.000, 207.529 0.000, 506.957 "
fill = "none" stroke = "black"/>
</g>
<g>
<polygon points = "419.854, 712.280 337.960, 685.742 0.000, 796.221 0.000, 1000.000 655.973, 1000.000 604.996, 881.593 "
fill = "none" stroke = "black"/>
</g>
<g>
<polygon points = "337.960, 685.742 232.167, 489.968 0.000, 506.957 0.000, 796.221 "
fill = "none" stroke = "black"/>
</g>
<g>
<polygon points = "0.000, 207.529 141.227, 195.713 340.640, 0.000 0.000, 0.000 "
fill = "none" stroke = "black"/>
</g>
<g>
<polygon points = "733.275, 439.311 604.996, 881.593 655.973, 1000.000 1000.000, 1000.000 1000.000, 523.317 "
fill = "none" stroke = "black"/>
</g>
<g>
<polygon points = "598.270, 261.603 674.318, 304.415 1000.000, 165.431 1000.000, 0.000 517.274, 0.000 "
fill = "none" stroke = "black"/>
</g>
<g>
<polygon points = "141.227, 195.713 283.776, 366.868 490.145, 342.927 598.270, 261.603 517.274, 0.000 340.640, 0.000 "
fill = "none" stroke = "black"/>
</g>
<g>
<polygon points = "490.145, 342.927 419.854, 712.280 604.996, 881.593 733.275, 439.311 674.318, 304.415 598.270, 261.603 "
fill = "none" stroke = "black"/>
</g>
<g>
<polygon points = "337.960, 685.742 419.854, 712.280 490.145, 342.927 283.776, 366.868 232.167, 489.968 "
fill = "none" stroke = "black"/>
</g>
<g>
<polygon points = "674.318, 304.415 733.275, 439.311 1000.000, 523.317 1000.000, 165.431 "
fill = "none" stroke = "black"/>
</g>
<g>
<polygon points = "232.167, 489.968 283.776, 366.868 141.227, 195.713 0.000, 207.529 0.000, 506.957 "
fill = "none" stroke = "black"/>
</g>
<g>
<polygon points = "419.854, 712.280 337.960, 685.742 0.000, 796.221 0.000, 1000.000 655.973, 1000.000 604.996, 881.593 "
fill = "none" stroke = "black"/>
</g>
<g>
<polygon points = "337.960, 685.742 232.167, 489.968 0.000, 506.957 0.000, 796.221 "
fill = "none" stroke = "black"/>
</g>
<g>
<polygon points = "0.000, 207.529 141.227, 195.713 340.640, 0.000 0.000, 0.000 "
fill = "none" stroke = "black"/>
</g>
<g>
<polygon points = "733.275, 439.311 604.996, 881.593 655.973, 1000.000 1000.000, 1000.000 1000.000, 523.317 "
fill = "none" stroke = "black"/>
</g>
<g>
<polygon points = "598.270, 261.603 674.318, 304.415 1000.000, 165.431 1000.000, 0.000 517.274, 0.000 "
fill = "none" stroke = "black"/>
</g>
<g>
<polygon points = "141.227, 195.713 283.776, 366.868 490.145, 342.927 598.270, 261.603 517.274, 0.000 340.640, 0.000 "
fill = "none" stroke = "black"/>
</g>
<g>
<polygon points = "490.145, 342.927 419.854, 712.280 604.996, 881.593 733.275, 439.311 674.318, 304.415 598.270, 261.603 "
fill = "none" stroke = "black"/>
</g>
<g>
<polygon points = "337.960, 685.742 419.854, 712.280 490.145, 342.927 283.776, 366.868 232.167, 489.968 "
fill = "none" stroke = "black"/>
</g>
<g>
<polygon points = "674.318, 304.415 733.275, 439.311 1000.000, 523.317 1000.000, 165.431 "
fill = "none" stroke = "black"/>
</g>
<g>
<polygon points = "232.167, 489.968 283.776, 366.868 141.227, 195.713 0.000, 207.529 0.000, 506.957 "
fill = "none" stroke = "black"/>
</g>
<g>
<polygon points = "419.854, 712.280 337.960, 685.742 0.000, 796.221 0.000, 1000.000 655.973, 1000.000 604.996, 881.593 "
fill = "none" stroke = "black"/>
</g>
<g>
<polygon points = "337.960, 685.742 232.167, 489.968 0.000, 506.957 0.000, 796.221 "
fill = "none" stroke = "black"/>
</g>
<g>
<polygon points = "0.000, 207.529 141.227, 195.713 340.640, 0.000 0.000, 0.000 "
fill = "none" stroke = "black"/>
</g>
<g>
<polygon points = "733.275, 439.311 604.996, 881.593 655.973, 1000.000 1000.000, 1000.000 1000.000, 523.317 "
fill = "none" stroke = "black"/>
</g>
<g>
<polygon points = "598.270, 261.603 674.318, 304.415 1000.000, 165.431 1000.000, 0.000 517.274, 0.000 "
fill = "none" stroke = "black"/>
</g>
<g>
<polygon points = "141.227, 195.713 283.776, 366.868 490.145, 342.927 598.270, 261.603 517.274, 0.000 340.640, 0.000 "
fill = "none" stroke = "black"/>
</g>
<g>
<polygon points = "490.145, 342.927 419.854, 712.280 604.996, 881.593 733.275, 439.311 674.318, 304.415 598.270, 261.603 "
fill = "none" stroke = "black"/>
</g>
<g>
<polygon points = "337.960, 685.742 419.854, 712.280 490.145, 342.927 283.776, 366.868 232.167, 489.968 "
fill = "none" stroke = "black"/>
</g>
<g>
<polygon points = "674.318, 304.415 733.275, 439.311 1000.000, 523.317 1000.000, 165.431 "
fill = "none" stroke = "black"/>
</g>
<g>
<polygon points = "232.167, 489.968 283.776, 366.868 141.227, 195.713 0.000, 207.529 0.000, 506.957 "
fill = "none" stroke = "black"/>
</g>
<g>
<polygon points = "419.854, 712.280 337.960, 685.742 0.000, 796.221 0.000, 1000.000 655.973, 1000.000 604.996, 881.593 "
fill = "none" stroke = "black"/>
</g>
<g>
<polygon points = "337.960, 685.742 232.167, 489.968 0.000, 506.957 0.000, 796.221 "
fill = "none" stroke = "black"/>
</g>
<g>
<polygon points = "0.000, 207.529 141.227, 195.713 340.640, 0.000 0.000, 0.000 "
fill = "none" stroke = "black"/>
</g>
<g>
<polygon points = "733.275, 439.311 604.996, 881.593 655.973, 1000.000 1000.000, 1000.000 1000.000, 523.317 "
fill = "none" stroke = "black"/>
</g>
<g>
<polygon points = "598.270, 261.603 674.318, 304.415 1000.000, 165.431 1000.000, 0.000 517.274, 0.000 "
fill = "none" stroke = "black"/>
</g>
<g>
<polygon points = "141.227, 195.713 283.776, 366.868 490.145, 342.927 598.270, 261.603 517.274, 0.000 340.640, 0.000 "
fill = "none" stroke = "black"/>
</g>
<g>
<polygon points = "490.145, 342.927 419.854, 712.280 604.996, 881.593 733.275, 439.311 674.318, 304.415 598.270, 261.603 "
fill = "none" stroke = "black"/>
</g>
<g>
<polygon points = "337.960, 685.742 419.854, 712.280 490.145, 342.927 283.776, 366.868 232.167, 489.968 "
fill = "none" stroke = "black"/>
</g>
<g>
<polygon points = "674.318, 304.415 733.275, 439.311 1000.000, 523.317 1000.000, 165.431 "
fill = "none" stroke = "black"/>
</g>
<g>
<polygon points = "232.167, 489.968 283.776, 366.868 141.227, 195.713 0.000, 207.529 0.000, 506.957 "
fill = "none" stroke = "black"/>
</g>
<g>
<polygon points = "419.854, 712.280 337.960, 685.742 0.000, 796.221 0.000, 1000.000 655.973, 1000.000 604.996, 881.593 "
fill = "none" stroke = "black"/>
</g>
<g>
<polygon points = "337.960, 685.742 232.167, 489.968 0.000, 506.957 0.000, 796.221 "
fill = "none" stroke = "black"/>
</g>
<g>
<polygon points = "0.000, 207.529 141.227, 195.713 340.640, 0.000 0.000, 0.000 "
fill = "none" stroke = "black"/>
</g>
<g>
<polygon points = "733.275, 439.311 604.996, 881.593 655.973, 1000.000 1000.000, 1000.000 1000.000, 523.317 "
fill = "none" stroke = "black"/>
</g>
<g>
<polygon points = "598.270, 261.603 674.318, 304.415 1000.000, 165.431 1000.000, 0.000 517.274, 0.000 "
fill = "none" stroke = "black"/>
</g>
<g>
<polygon points = "141.227, 195.713 283.776, 366.868 490.145, 342.927 598.270, 261.603 517.274, 0.000 340.640, 0.000 "
fill = "none" stroke = "black"/>
</g>
<g>
<polygon points = "490.145, 342.927 419.854, 712.280 604.996, 881.593 733.275, 439.311 674.318, 304.415 598.270, 261.603 "
fill = "none" stroke = "black"/>
</g>
<g>
<polygon points = "337.960, 685.742 419.854, 712.280 490.145, 342.927 283.776, 366.868 232.167, 489.968 "
fill = "none" stroke = "black"/>
</g>
<g>
<polygon points = "674.318, 304.415 733.275, 439.311 1000.000, 523.317 1000.000, 165.431 "
fill = "none" stroke = "black"/>
</g>
<g>
<polygon points = "232.167, 489.968 283.776, 366.868 141.227, 195.713 0.000, 207.529 0.000, 506.957 "
fill = "none" stroke = "black"/>
</g>
<g>
<polygon points = "419.854, 712.280 337.960, 685.742 0.000, 796.221 0.000, 1000.000 655.973, 1000.000 604.996, 881.593 "
fill = "none" stroke = "black"/>
</g>
<g>
<polygon points = "337.960, 685.742 232.167, 489.968 0.000, 506.957 0.000, 796.221 "
fill = "none" stroke = "black"/>
</g>
<g>
<polygon points = "0.000, 207.529 141.227, 195.713 340.640, 0.000 0.000, 0.000 "
fill = "none" stroke = "black"/>
</g>
<g>
<polygon points = "733.275, 439.311 604.996, 881.593 655.973, 1000.000 1000.000, 1000.000 1000.000, 523.317 "
fill = "none" stroke = "black"/>
</g>
<g>
<polygon points = "598.270, 261.603 674.318, 304.415 1000.000, 165.431 1000.000, 0.000 517.274, 0.000 "
fill = "none" stroke = "black"/>
</g>
<g>
<polygon points = "141.227, 195.713 283.776, 366.868 490.145, 342.927 598.270, 261.603 517.274, 0.000 340.640, 0.000 "
fill = "none" stroke = "black"/>
</g>
<g>
<polygon points = "490.145, 342.927 419.854, 712.280 604.996, 881.593 733.275, 439.311 674.318, 304.415 598.270, 261.603 "
fill = "none" stroke = "black"/>
</g>
<g>
<polygon points = "337.960, 685.742 419.854, 712.280 490.145, 342.927 283.776, 366.868 232.167, 489.968 "
fill = "none" stroke = "black"/>
</g>
<g>
<polygon points = "674.318, 304.415 733.275, 439.311 1000.000, 523.317 1000.000, 165.431 "
fill = "none" stroke = "black"/>
</g>
<g>
<polygon points = "232.167, 489.968 283.776, 366.868 141.227, 195.713 0.000, 207.529 0.000, 506.957 "
fill = "none" stroke = "black"/>
</g>
<g>
<polygon points = "419.854, 712.280 337.960, 685.742 0.000, 796.221 0.000, 1000.000 655.973, 1000.000 604.996, 881.593 "
fill = "none" stroke = "black"/>
</g>
<g>
<polygon points = "337.960, 685.742 232.167, 489.968 0.000, 506.957 0.000, 796.221 "
fill = "none" stroke = "black"/>
</g>
<g>
<polygon points = "0.000, 207.529 141.227, 195.713 340.640, 0.000 0.000, 0.000 "
fill = "none" stroke = "black"/>
</g>
<g>
<polygon points = "733.275, 439.311 604.996, 881.593 655.973, 1000.000 1000.000, 1000.000 1000.000, 523.317 "
fill = "none" stroke = "black"/>
</g>
<g>
<polygon points = "598.270, 261.603 674.318, 304.415 1000.000, 165.431 1000.000, 0.000 517.274, 0.000 "
fill = "none" stroke = "black"/>
</g>
<g>
<polygon points = "141.227, 195.713 283.776, 366.868 490.145, 342.927 598.270, 261.603 517.274, 0.000 340.640, 0.000 "
fill = "none" stroke = "black"/>
</g>
<g>
<polygon points = "490.145, 342.927 419.854, 712.280 604.996, 881.593 733.275, 439.311 674.318, 304.415 598.270, 261.603 "
fill = "none" stroke = "black"/>
</g>
<g>
<polygon points = "337.960, 685.742 419.854, 712.280 490.145, 342.927 283.776, 366.868 232.167, 489.968 "
fill = "none" stroke = "black"/>
</g>
<g>
<polygon points = "674.318, 304.415 733.275, 439.311 1000.000, 523.317 1000.000, 165.431 "
fill = "none" stroke = "black"/>
</g>
<g>
<polygon points = "232.167, 489.968 283.776, 366.868 141.227, 195.713 0.000, 207.529 0.000, 506.957 "
fill = "none" stroke = "black"/>
</g>
<g>
<polygon points = "419.854, 712.280 337.960, 685.742 0.000, 796.221 0.000, 1000.000 655.973, 1000.000 604.996, 881.593 "
fill = "none" stroke = "black"/>
</g>
<g>
<polygon points = "337.960, 685.742 232.167, 489.968 0.000, 506.957 0.000, 796.221 "
fill = "none" stroke = "black"/>
</g>
<g>
<polygon points = "0.000, 207.529 141.227, 195.713 340.640, 0.000 0.000, 0.000 "
fill = "none" stroke = "black"/>
</g>
<g>
<polygon points = "733.275, 439.311 604.996, 881.593 655.973, 1000.000 1000.000, 1000.000 1000.000, 523.317 "
fill = "none" stroke = "black"/>
</g>
<g>
<polygon points = "598.270, 261.603 674.318, 304.415 1000.000, 165.431 1000.000, 0.000 517.274, 0.000 "
fill = "none" stroke = "black"/>
</g>
<g>
<polygon points = "141.227, 195.713 283.776, 366.868 490.145, 342.927 598.270, 261.603 517.274, 0.000 340.640, 0.000 "
fill = "none" stroke = "black"/>
</g>
<g>
<polygon points = "490.145, 342.927 419.854, 712.280 604.996, 881.593 733.275, 439.311 674.318, 304.415 598.270, 261.603 "
fill = "none" stroke = "black"/>
</g>
<g>
<polygon points = "337.960, 685.742 419.854, 712.280 490.145, 342.927 283.776, 366.868 232.167, 489.968 "
fill = "none" stroke = "black"/>
</g>
<g>
<polygon points = "674.318, 304.415 733.275, 439.311 1000.000, 523.317 1000.000, 165.431 "
fill = "none" stroke = "black"/>
</g>
<g>
<polygon points = "232.167, 489.968 283.776, 366.868 141.227, 195.713 0.000, 207.529 0.000, 506.957 "
fill = "none" stroke = "black"/>
</g>
<g>
<polygon points = "419.854, 712.280 337.960, 685.742 0.000, 796.221 0.000, 1000.000 655.973, 1000.000 604.996, 881.593 "
fill = "none" stroke = "black"/>
</g>
<g>
<polygon points = "337.960, 685.742 232.167, 489.968 0.000, 506.957 0.000, 796.221 "
fill = "none" stroke = "black"/>
</g>
<g>
<polygon points = "0.000, 207.529 141.227, 195.713 340.640, 0.000 0.000, 0.000 "
fill = "none" stroke = "black"/>
</g>
<g>
<polygon points = "733.275, 439.311 604.996, 881.593 655.973, 1000.000 1000.000, 1000.000 1000.000, 523.317 "
fill = "none" stroke = "black"/>
</g>
<g>
<polygon points = "598.270, 261.603 674.318, 304.415 1000.000, 165.431 1000.000, 0.000 517.274, 0.000 "
fill = "none" stroke = "black"/>
</g>
<g>
<polygon points = "141.227, 195.713 283.776, 366.868 490.145, 342.927 598.270, 261.603 517.274, 0.000 340.640, 0.000 "
fill = "none" stroke = "black"/>
</g>
<g>
<polygon points = "490.145, 342.927 419.854, 712.280 604.996, 881.593 733.275, 439.311 674.318, 304.415 598.270, 261.603 "
fill = "none" stroke = "black"/>
</g>
<g>
<polygon points = "337.960, 685.742 419.854, 712.280 490.145, 342.927 283.776, 366.868 232.167, 489.968 "
fill = "none" stroke = "black"/>
</g>
<g>
<polygon points = "674.318, 304.415 733.275, 439.311 1000.000, 523.317 1000.000, 165.431 "
fill = "none" stroke = "black"/>
</g>
<g>
<polygon points = "232.167, 489.968 283.776, 366.868 141.227, 195.713 0.000, 207.529 0.000, 506.957 "
fill = "none" stroke = "black"/>
</g>
<g>
<polygon points = "419.854, 712.280 337.960, 685.742 0.000, 796.221 0.000, 1000.000 655.973, 1000.000 604.996, 881.593 "
fill = "none" stroke = "black"/>
</g>
<g>
<polygon points = "337.960, 685.742 232.167, 489.968 0.000, 506.957 0.000, 796.221 "
fill = "none" stroke = "black"/>
</g>
<g>
<polygon points = "0.000, 207.529 141.227, 195.713 340.640, 0.000 0.000, 0.000 "
fill = "none" stroke = "black"/>
</g>
<g>
<polygon points = "733.275, 439.311 604.996, 881.593 655.973, 1000.000 1000.000, 1000.000 1000.000, 523.317 "
fill = "none" stroke = "black"/>
</g>
<g>
<polygon points = "598.270, 261.603 674.318, 304.415 1000.000, 165.431 1000.000, 0.000 517.274, 0.000 "
fill = "none" stroke = "black"/>
</g>
<g>
<polygon points = "141.227, 195.713 283.776, 366.868 490.145, 342.927 598.270, 261.603 517.274, 0.000 340.640, 0.000 "
fill = "none" stroke = "black"/>
</g>
<g>
<polygon points = "490.145, 342.927 419.854, 712.280 604.996, 881.593 733.275, 439.311 674.318, 304.415 598.270, 261.603 "
fill = "none" stroke = "black"/>
</g>
<g>
<polygon points = "337.960, 685.742 419.854, 712.280 490.145, 342.927 283.776, 366.868 232.167, 489.968 "
fill = "none" stroke = "black"/>
</g>
<g>
<polygon points = "674.318, 304.415 733.275, 439.311 1000.000, 523.317 1000.000, 165.431 "
fill = "none" stroke = "black"/>
</g>
<g>
<polygon points = "232.167, 489.968 283.776, 366.868 141.227, 195.713 0.000, 207.529 0.000, 506.957 "
fill = "none" stroke = "black"/>
</g>
<g>
<polygon points = "419.854, 712.280 337.960, 685.742 0.000, 796.221 0.000, 1000.000 655.973, 1000.000 604.996, 881.593 "
fill = "none" stroke = "black"/>
</g>
<g>
<polygon points = "337.960, 685.742 232.167, 489.968 0.000, 506.957 0.000, 796.221 "
fill = "none" stroke = "black"/>
</g>
<g>
<polygon points = "0.000, 207.529 141.227, 195.713 340.640, 0.000 0.000, 0.000 "
fill = "none" stroke = "black"/>
</g>
<g>
<polygon points = "733.275, 439.311 604.996, 881.593 655.973, 1000.000 1000.000, 1000.000 1000.000, 523.317 "
fill = "none" stroke = "black"/>
</g>
<g>
<polygon points = "598.270, 261.603 674.318, 304.415 1000.000, 165.431 1000.000, 0.000 517.274, 0.000 "
fill = "none" stroke = "black"/>
</g>
<g>
<polygon points = "141.227, 195.713 283.776, 366.868 490.145, 342.927 598.270, 261.603 517.274, 0.000 340.640, 0.000 "
fill = "none" stroke = "black"/>
</g>
<g>
<polygon points = "490.145, 342.927 419.854, 712.280 604.996, 881.593 733.275, 439.311 674.318, 304.415 598.270, 261.603 "
fill = "none" stroke = "black"/>
</g>
<g>
<polygon points = "337.960, 685.742 419.854, 712.280 490.145, 342.927 283.776, 366.868 232.167, 489.968 "
fill = "none" stroke = "black"/>
</g>
<g>
<polygon points = "674.318, 304.415 733.275, 439.311 1000.000, 523.317 1000.000, 165.431 "
fill = "none" stroke = "black"/>
</g>
<g>
<polygon points = "232.167, 489.968 283.776, 366.868 141.227, 195.713 0.000, 207.529 0.000, 506.957 "
fill = "none" stroke = "black"/>
</g>
<g>
<polygon points = "419.854, 712.280 337.960, 685.742 0.000, 796.221 0.000, 1000.000 655.973, 1000.000 604.996, 881.593 "
fill = "none" stroke = "black"/>
</g>
<g>
<polygon points = "337.960, 685.742 232.167, 489.968 0.000, 506.957 0.000, 796.221 "
fill = "none" stroke = "black"/>
</g>
<g>
<polygon points = "0.000, 207.529 141.227, 195.713 340.640, 0.000 0.000, 0.000 "
fill = "none" stroke = "black"/>
</g>
<g>
<polygon points = "733.275, 439.311 604.996, 881.593 655.973, 1000.000 1000.000, 1000.000 1000.000, 523.317 "
fill = "none" stroke = "black"/>
</g>
<g>
<polygon points = "598.270, 261.603 674.318, 304.415 1000.000, 165.431 1000.000, 0.000 517.274, 0.000 "
fill = "none" stroke = "black"/>
</g>
<g>
<polygon points = "141.227, 195.713 283.776, 366.868 490.145, 342.927 598.270, 261.603 517.274, 0.000 340.640, 0.000 "
fill = "none" stroke = "black"/>
</g>
<g>
<polygon points = "490.145, 342.927 419.854, 712.280 604.996, 881.593 733.275, 439.311 674.318, 304.415 598.270, 261.603 "
fill = "none" stroke = "black"/>
</g>
<g>
<polygon points = "337.960, 685.742 419.854, 712.280 490.145, 342.927 283.776, 366.868 232.167, 489.968 "
fill = "none" stroke = "black"/>
</g>
<g>
<polygon points = "674.318, 304.415 733.275, 439.311 1000.000, 523.317 1000.000, 165.431 "
fill = "none" stroke = "black"/>
</g>
<g>
<polygon points = "232.167, 489.968 283.776, 366.868 141.227, 195.713 0.000, 207.529 0.000, 506.957 "
fill = "none" stroke = "black"/>
</g>
<g>
<polygon points = "419.854, 712.280 337.960, 685.742 0.000, 796.221 0.000, 1000.000 655.973, 1000.000 604.996, 881.593 "
fill = "none" stroke = "black"/>
</g>
<g>
<polygon points = "337.960, 685.742 232.167, 489.968 0.000, 506.957 0.000, 796.221 "
fill = "none" stroke = "black"/>
</g>
<g>
<polygon points = "0.000, 207.529 141.227, 195.713 340.640, 0.000 0.000, 0.000 "
fill = "none" stroke = "black"/>
</g>
<g>
<polygon points = "733.275, 439.311 604.996, 881.593 655.973, 1000.000 1000.000, 1000.000 1000.000, 523.317 "
fill = "none" stroke = "black"/>
</g>
<g>
<polygon points = "598.270, 261.603 674.318, 304.415 1000.000, 165.431 1000.000, 0.000 517.274, 0.000 "
fill = "none" stroke = "black"/>
</g>
<g>
<polygon points = "141.227, 195.713 283.776, 366.868 490.145, 342.927 598.270, 261.603 517.274, 0.000 340.640, 0.000 "
fill = "none" stroke = "black"/>
</g>
<g>
<polygon points = "490.145, 342.927 419.854, 712.280 604.996, 881.593 733.275, 439.311 674.318, 304.415 598.270, 261.603 "
fill = "none" stroke = "black"/>
</g>
<g>
<polygon points = "337.960, 685.742 419.854, 712.280 490.145, 342.927 283.776, 366.868 232.167, 489.968 "
fill = "none" stroke = "black"/>
</g>
<g>
<polygon points = "674.318, 304.415 733.275, 439.311 1000.000, 523.317 1000.000, 165.431 "
fill = "none" stroke = "black"/>
</g>
<g>
<polygon points = "232.167, 489.968 283.776, 366.868 141.227, 195.713 0.000, 207.529 0.000, 506.957 "
fill = "none" stroke = "black"/>
</g>
<g>
<polygon points = "419.854, 712.280 337.960, 685.742 0.000, 796.221 0.000, 1000.000 655.973, 1000.000 604.996, 881.593 "
fill = "none" stroke = "black"/>
</g>
<g>
<polygon points = "337.960, 685.742 232.167, 489.968 0.000, 506.957 0.000, 796.221 "
fill = "none" stroke = "black"/>
</g>
<g>
<polygon points = "0.000, 207.529 141.227, 195.713 340.640, 0.000 0.000, 0.000 "
fill = "none" stroke = "black"/>
</g>
<g>
<polygon points = "733.275, 439.311 604.996, 881.593 655.973, 1000.000 1000.000, 1000.000 1000.000, 523.317 "
fill = "none" stroke = "black"/>
</g>
<g>
<polygon points = "598.270, 261.603 674.318, 304.415 1000.000, 165.431 1000.000, 0.000 517.274, 0.000 "
fill = "none" stroke = "black"/>
</g>
<g>
<polygon points = "141.227, 195.713 283.776, 366.868 490.145, 342.927 598.270, 261.603 517.274, 0.000 340.640, 0.000 "
fill = "none" stroke = "black"/>
</g>
<g>
<polygon points = "490.145, 342.927 419.854, 712.280 604.996, 881.593 733.275, 439.311 674.318, 304.415 598.270, 261.603 "
fill = "none" stroke = "black"/>
</g>
<g>
<polygon points = "337.960, 685.742 419.854, 712.280 490.145, 342.927 283.776, 366.868 232.167, 489.968 "
fill = "none" stroke = "black"/>
</g>
<g>
<polygon points = "674.318, 304.415 733.275, 439.311 1000.000, 523.317 1000.000, 165.431 "
fill = "none" stroke = "black"/>
</g>
<g>
<polygon points = "232.167, 489.968 283.776, 366.868 141.227, 195.713 0.000, 207.529 0.000, 506.957 "
fill = "none" stroke = "black"/>
</g>
<g>
<polygon points = "419.854, 712.280 337.960, 685.742 0.000, 796.221 0.000, 1000.000 655.973, 1000.000 604.996, 881.593 "
fill = "none" stroke = "black"/>
</g>
<g>
<polygon points = "337.960, 685.742 232.167, 489.968 0.000, 506.957 0.000, 796.221 "
fill = "none" stroke = "black"/>
</g>
<g>
<polygon points = "0.000, 207.529 141.227, 195.713 340.640, 0.000 0.000, 0.000 "
fill = "none" stroke = "black"/>
</g>
<g>
<polygon points = "733.275, 439.311 604.996, 881.593 655.973, 1000.000 1000.000, 1000.000 1000.000, 523.317 "
fill = "none" stroke = "black"/>
</g>
<g>
<polygon points = "598.270, 261.603 674.318, 304.415 1000.000, 165.431 1000.000, 0.000 517.274, 0.000 "
fill = "none" stroke = "black"/>
</g>
<g>
<polygon points = "141.227, 195.713 283.776, 366.868 490.145, 342.927 598.270, 261.603 517.274, 0.000 340.640, 0.000 "
fill = "none" stroke = "black"/>
</g>
<g>
<polygon points = "490.145, 342.927 419.854, 712.280 604.996, 881.593 733.275, 439.311 674.318, 304.415 598.270, 261.603 "
fill = "none" stroke = "black"/>
</g>
<g>
<polygon points = "337.960, 685.742 419.854, 712.280 490.145, 342.927 283.776, 366.868 232.167, 489.968 "
fill = "none" stroke = "black"/>
</g>
<g>
<polygon points = "674.318, 304.415 733.275, 439.311 1000.000, 523.317 1000.000, 165.431 "
fill = "none" stroke = "black"/>
</g>
<g>
<polygon points = "232.167, 489.968 283.776, 366.868 141.227, 195.713 0.000, 207.529 0.000, 506.957 "
fill = "none" stroke = "black"/>
</g>
<g>
<polygon points = "419.854, 712.280 337.960, 685.742 0.000, 796.221 0.000, 1000.000 655.973, 1000.000 604.996, 881.593 "
fill = "none" stroke = "black"/>
</g>
<g>
<polygon points = "337.960, 685.742 232.167, 489.968 0.000, 506.957 0.000, 796.221 "
fill = "none" stroke = "black"/>
</g>
<g>
<polygon points = "0.000, 207.529 141.227, 195.713 340.640, 0.000 0.000, 0.000 "
fill = "none" stroke = "black"/>
</g>
<g>
<polygon points = "733.275, 439.311 604.996, 881.593 655.973, 1000.000 1000.000, 1000.000 1000.000, 523.317 "
fill = "none" stroke = "black"/>
</g>
<g>
<polygon points = "598.270, 261.603 674.318, 304.415 1000.000, 165.431 1000.000, 0.000 517.274, 0.000 "
fill = "none" stroke = "black"/>
</g>
<g>
<polygon points = "141.227, 195.713 283.776, 366.868 490.145, 342.927 598.270, 261.603 517.274, 0.000 340.640, 0.000 "
fill = "none" stroke = "black"/>
</g>
<g>
<polygon points = "490.145, 342.927 419.854, 712.280 604.996, 881.593 733.275, 439.311 674.318, 304.415 598.270, 261.603 "
fill = "none" stroke = "black"/>
</g>
<g>
<polygon points = "337.960, 685.742 419.854, 712.280 490.145, 342.927 283.776, 366.868 232.167, 489.968 "
fill = "none" stroke = "black"/>
</g>
<g>
<polygon points = "674.318, 304.415 733.275, 439.311 1000.000, 523.317 1000.000, 165.431 "
fill = "none" stroke = "black"/>
</g>
<g>
<polygon points = "232.167, 489.968 283.776, 366.868 141.227, 195.713 0.000, 207.529 0.000, 506.957 "
fill = "none" stroke = "black"/>
</g>
<g>
<polygon points = "419.854, 712.280 337.960, 685.742 0.000, 796.221 0.000, 1000.000 655.973, 1000.000 604.996, 881.593 "
fill = "none" stroke = "black"/>
</g>
<g>
<polygon points = "337.960, 685.742 232.167, 489.968 0.000, 506.957 0.000, 796.221 "
fill = "none" stroke = "black"/>
</g>
<g>
<polygon points = "0.000, 207.529 141.227, 195.713 340.640, 0.000 0.000, 0.000 "
fill = "none" stroke = "black"/>
</g>
<g>
<polygon points = "733.275, 439.311 604.996, 881.593 655.973, 1000.000 1000.000, 1000.000 1000.000, 523.317 "
fill = "none" stroke = "black"/>
</g>
<g>
<polygon points = "598.270, 261.603 674.318, 304.415 1000.000, 165.431 1000.000, 0.000 517.274, 0.000 "
fill = "none" stroke = "black"/>
</g>
<g>
<polygon points = "141.227, 195.713 283.776, 366.868 490.145, 342.927 598.270, 261.603 517.274, 0.000 340.640, 0.000 "
fill = "none" stroke = "black"/>
</g>
<g>
<polygon points = "490.145, 342.927 419.854, 712.280 604.996, 881.593 733.275, 439.311 674.318, 304.415 598.270, 261.603 "
fill = "none" stroke = "black"/>
</g>
<g>
<polygon points = "337.960, 685.742 419.854, 712.280 490.145, 342.927 283.776, 366.868 232.167, 489.968 "
fill = "none" stroke = "black"/>
</g>
<g>
<polygon points = "674.318, 304.415 733.275, 439.311 1000.000, 523.317 1000.000, 165.431 "
fill = "none" stroke = "black"/>
</g>
<g>
<polygon points = "232.167, 489.968 283.776, 366.868 141.227, 195.713 0.000, 207.529 0.000, 506.957 "
fill = "none" stroke = "black"/>
</g>
<g>
<polygon points = "419.854, 712.280 337.960, 685.742 0.000, 796.221 0.000, 1000.000 655.973, 1000.000 604.996, 881.593 "
fill = "none" stroke = "black"/>
</g>
<g>
<polygon points = "337.960, 685.742 232.167, 489.968 0.000, 506.957 0.000, 796.221 "
fill = "none" stroke = "black"/>
</g>
<g>
<polygon points = "0.000, 207.529 141.227, 195.713 340.640, 0.000 0.000, 0.000 "
fill = "none" stroke = "black"/>
</g>
<g>
<polygon points = "733.275, 439.311 604.996, 881.593 655.973, 1000.000 1000.000, 1000.000 1000.000, 523.317 "
fill = "none" stroke = "black"/>
</g>
<g>
<polygon points = "598.270, 261.603 674.318, 304.415 1000.000, 165.431 1000.000, 0.000 517.274, 0.000 "
fill = "none" stroke = "black"/>
</g>
<g>
<polygon points = "141.227, 195.713 283.776, 366.868 490.145, 342.927 598.270, 261.603 517.274, 0.000 340.640, 0.000 "
fill = "none" stroke = "black"/>
</g>
<g>
<polygon points = "490.145, 342.927 419.854, 712.280 604.996, 881.593 733.275, 439.311 674.318, 304.415 598.270, 261.603 "
fill = "none" stroke = "black"/>
</g>
<g>
<polygon points = "337.960, 685.742 419.854, 712.280 490.145, 342.927 283.776, 366.868 232.167, 489.968 "
fill = "none" stroke = "black"/>
</g>
<g>
<polygon points = "674.318, 304.415 733.275, 439.311 1000.000, 523.317 1000.000, 165.431 "
fill = "none" stroke = "black"/>
</g>
<g>
<polygon points = "232.167, 489.968 283.776, 366.868 141.227, 195.713 0.000, 207.529 0.000, 506.957 "
fill = "none" stroke = "black"/>
</g>
<g>
<polygon points = "419.854, 712.280 337.960, 685.742 0.000, 796.221 0.000, 1000.000 655.973, 1000.000 604.996, 881.593 "
fill = "none" stroke = "black"/>
</g>
<g>
<polygon points = "337.960, 685.742 232.167, 489.968 0.000, 506.957 0.000, 796.221 "
fill = "none" stroke = "black"/>
</g>
<g>
<polygon points = "0.000, 207.529 141.227, 195.713 340.640, 0.000 0.000, 0.000 "
fill = "none" stroke = "black"/>
</g>
<g>
<polygon points = "733.275, 439.311 604.996, 881.593 655.973, 1000.000 1000.000, 1000.000 1000.000, 523.317 "
fill = "none" stroke = "black"/>
</g>
<g>
<polygon points = "598.270, 261.603 674.318, 304.415 1000.000, 165.431 1000.000, 0.000 517.274, 0.000 "
fill = "none" stroke = "black"/>
</g>
<g>
<polygon points = "141.227, 195.713 283.776, 366.868 490.145, 342.927 598.270, 261.603 517.274, 0.000 340.640, 0.000 "
fill = "none" stroke = "black"/>
</g>
<g>
<polygon points = "490.145, 342.927 419.854, 712.280 604.996, 881.593 733.275, 439.311 674.318, 304.415 598.270, 261.603 "
fill = "none" stroke = "black"/>
</g>
<g>
<polygon points = "337.960, 685.742 419.854, 712.280 490.145, 342.927 283.776, 366.868 232.167, 489.968 "
fill = "none" stroke = "black"/>
</g>
<g>
<polygon points = "674.318, 304.415 733.275, 439.311 1000.000, 523.317 1000.000, 165.431 "
fill = "none" stroke = "black"/>
</g>
<g>
<polygon points = "232.167, 489.968 283.776, 366.868 141.227, 195.713 0.000, 207.529 0.000, 506.957 "
fill = "none" stroke = "black"/>
</g>
<g>
<polygon points = "419.854, 712.280 337.960, 685.742 0.000, 796.221 0.000, 1000.000 655.973, 1000.000 604.996, 881.593 "
fill = "none" stroke = "black"/>
</g>
<g>
<polygon points = "337.960, 685.742 232.167, 489.968 0.000, 506.957 0.000, 796.221 "
fill = "none" stroke = "black"/>
</g>
<g>
<polygon points = "0.000, 207.529 141.227, 195.713 340.640, 0.000 0.000, 0.000 "
fill = "none" stroke = "black"/>
</g>
<g>
<polygon points = "733.275, 439.311 604.996, 881.593 655.973, 1000.000 1000.000, 1000.000 1000.000, 523.317 "
fill = "none" stroke = "black"/>
</g>
<g>
<polygon points = "598.270, 261.603 674.318, 304.415 1000.000, 165.431 1000.000, 0.000 517.274, 0.000 "
fill = "none" stroke = "black"/>
</g>
<g>
<polygon points = "141.227, 195.713 283.776, 366.868 490.145, 342.927 598.270, 261.603 517.274, 0.000 340.640, 0.000 "
fill = "none" stroke = "black"/>
</g>
<g>
<polygon points = "490.145, 342.927 419.854, 712.280 604.996, 881.593 733.275, 439.311 674.318, 304.415 598.270, 261.603 "
fill = "none" stroke = "black"/>
</g>
<g>
<polygon points = "337.960, 685.742 419.854, 712.280 490.145, 342.927 283.776, 366.868 232.167, 489.968 "
fill = "none" stroke = "black"/>
</g>
<g>
<polygon points = "674.318, 304.415 733.275, 439.311 1000.000, 523.317 1000.000, 165.431 "
fill = "none" stroke = "black"/>
</g>
<g>
<polygon points = "232.167, 489.968 283.776, 366.868 141.227, 195.713 0.000, 207.529 0.000, 506.957 "
fill = "none" stroke = "black"/>
</g>
<g>
<polygon points = "419.854, 712.280 337.960, 685.742 0.000, 796.221 0.000, 1000.000 655.973, 1000.000 604.996, 881.593 "
fill = "none" stroke = "black"/>
</g>
<g>
<polygon points = "337.960, 685.742 232.167, 489.968 0.000, 506.957 0.000, 796.221 "
fill = "none" stroke = "black"/>
</g>
<g>
<polygon points = "0.000, 207.529 141.227, 195.713 340.640, 0.000 0.000, 0.000 "
fill = "none" stroke = "black"/>
</g>
<g>
<polygon points = "733.275, 439.311 604.996, 881.593 655.973, 1000.000 1000.000, 1000.000 1000.000, 523.317 "
fill = "none" stroke = "black"/>
</g>
<g>
<polygon points = "598.270, 261.603 674.318, 304.415 1000.000, 165.431 1000.000, 0.000 517.274, 0.000 "
fill = "none" stroke = "black"/>
</g>
<g>
<polygon points = "141.227, 195.713 283.776, 366.868 490.145, 342.927 598.270, 261.603 517.274, 0.000 340.640, 0.000 "
fill = "none" stroke = "black"/>
</g>
<g>
<polygon points = "490.145, 342.927 419.854, 712.280 604.996, 881.593 733.275, 439.311 674.318, 304.415 598.270, 261.603 "
fill = "none" stroke = "black"/>
</g>
<g>
<polygon points = "337.960, 685.742 419.854, 712.280 490.145, 342.927 283.776, 366.868 232.167, 489.968 "
fill = "none" stroke = "black"/>
</g>
<g>
<polygon points = "674.318, 304.415 733.275, 439.311 1000.000, 523.317 1000.000, 165.431 "
fill = "none" stroke = "black"/>
</g>
<g>
<polygon points = "232.167, 489.968 283.776, 366.868 141.227, 195.713 0.000, 207.529 0.000, 506.957 "
fill = "none" stroke = "black"/>
</g>
<g>
<polygon points = "419.854, 712.280 337.960, 685.742 0.000, 796.221 0.000, 1000.000 655.973, 1000.000 604.996, 881.593 "
fill = "none" stroke = "black"/>
</g>
<g>
<polygon points = "337.960, 685.742 232.167, 489.968 0.000, 506.957 0.000, 796.221 "
fill = "none" stroke = "black"/>
</g>
<g>
<polygon points = "0.000, 207.529 141.227, 195.713 340.640, 0.000 0.000, 0.000 "
fill = "none" stroke = "black"/>
</g>
<g>
<polygon points = "733.275, 439.311 604.996, 881.593 655.973, 1000.000 1000.000, 1000.000 1000.000, 523.317 "
fill = "none" stroke = "black"/>
</g>
<g>
<polygon points = "598.270, 261.603 674.318, 304.415 1000.000, 165.431 1000.000, 0.000 517.274, 0.000 "
fill = "none" stroke = "black"/>
</g>
<g>
<polygon points = "141.227, 195.713 283.776, 366.868 490.145, 342.927 598.270, 261.603 517.274, 0.000 340.640, 0.000 "
fill = "none" stroke = "black"/>
</g>
<g>
<polygon points = "490.145, 342.927 419.854, 712.280 604.996, 881.593 733.275, 439.311 674.318, 304.415 598.270, 261.603 "
fill = "none" stroke = "black"/>
</g>
<g>
<polygon points = "337.960, 685.742 419.854, 712.280 490.145, 342.927 283.776, 366.868 232.167, 489.968 "
fill = "none" stroke = "black"/>
</g>
<g>
<polygon points = "674.318, 304.415 733.275, 439.311 1000.000, 523.317 1000.000, 165.431 "
fill = "none" stroke = "black"/>
</g>
<g>
<polygon points = "232.167, 489.968 283.776, 366.868 141.227, 195.713 0.000, 207.529 0.000, 506.957 "
fill = "none" stroke = "black"/>
</g>
<g>
<polygon points = "419.854, 712.280 337.960, 685.742 0.000, 796.221 0.000, 1000.000 655.973, 1000.000 604.996, 881.593 "
fill = "none" stroke = "black"/>
</g>
<g>
<polygon points = "337.960, 685.742 232.167, 489.968 0.000, 506.957 0.000, 796.221 "
fill = "none" stroke = "black"/>
</g>
<g>
<polygon points = "0.000, 207.529 141.227, 195.713 340.640, 0.000 0.000, 0.000 "
fill = "none" stroke = "black"/>
</g>
<g>
<polygon points = "733.275, 439.311 604.996, 881.593 655.973, 1000.000 1000.000, 1000.000 1000.000, 523.317 "
fill = "none" stroke = "black"/>
</g>
<g>
<polygon points = "598.270, 261.603 674.318, 304.415 1000.000, 165.431 1000.000, 0.000 517.274, 0.000 "
fill = "none" stroke = "black"/>
</g>
<g>
<polygon points = "141.227, 195.713 283.776, 366.868 490.145, 342.927 598.270, 261.603 517.274, 0.000 340.640, 0.000 "
fill = "none" stroke = "black"/>
</g>
<g>
<polygon points = "490.145, 342.927 419.854, 712.280 604.996, 881.593 733.275, 439.311 674.318, 304.415 598.270, 261.603 "
fill = "none" stroke = "black"/>
</g>
<g>
<polygon points = "337.960, 685.742 419.854, 712.280 490.145, 342.927 283.776, 366.868 232.167, 489.968 "
fill = "none" stroke = "black"/>
</g>
<g>
<polygon points = "674.318, 304.415 733.275, 439.311 1000.000, 523.317 1000.000, 165.431 "
fill = "none" stroke = "black"/>
</g>
<g>
<polygon points = "232.167, 489.968 283.776, 366.868 141.227, 195.713 0.000, 207.529 0.000, 506.957 "
fill = "none" stroke = "black"/>
</g>
<g>
<polygon points = "419.854, 712.280 337.960, 685.742 0.000, 796.221 0.000, 1000.000 655.973, 1000.000 604.996, 881.593 "
fill = "none" stroke = "black"/>
</g>
<g>
<polygon points = "337.960, 685.742 232.167, 489.968 0.000, 506.957 0.000, 796.221 "
fill = "none" stroke = "black"/>
</g>
<g>
<polygon points = "0.000, 207.529 141.227, 195.713 340.640, 0.000 0.000, 0.000 "
fill = "none" stroke = "black"/>
</g>
<g>
<polygon points = "733.275, 439.311 604.996, 881.593 655.973, 1000.000 1000.000, 1000.000 1000.000, 523.317 "
fill = "none" stroke = "black"/>
</g>
<g>
<polygon points = "598.270, 261.603 674.318, 304.415 1000.000, 165.431 1000.000, 0.000 517.274, 0.000 "
fill = "none" stroke = "black"/>
</g>
<g>
<polygon points = "141.227, 195.713 283.776, 366.868 490.145, 342.927 598.270, 261.603 517.274, 0.000 340.640, 0.000 "
fill = "none" stroke = "black"/>
</g>
<g>
<polygon points = "490.145, 342.927 419.854, 712.280 604.996, 881.593 733.275, 439.311 674.318, 304.415 598.270, 261.603 "
fill = "none" stroke = "black"/>
</g>
<g>
<polygon points = "337.960, 685.742 419.854, 712.280 490.145, 342.927 283.776, 366.868 232.167, 489.968 "
fill = "none" stroke = "black"/>
</g>
<g>
<polygon points = "674.318, 304.415 733.275, 439.311 1000.000, 523.317 1000.000, 165.431 "
fill = "none" stroke = "black"/>
</g>
<g>
<polygon points = "232.167, 489.968 283.776, 366.868 141.227, 195.713 0.000, 207.529 0.000, 506.957 "
fill = "none" stroke = "black"/>
</g>
<g>
<polygon points = "419.854, 712.280 337.960, 685.742 0.000, 796.221 0.000, 1000.000 655.973, 1000.000 604.996, 881.593 "
fill = "none" stroke = "black"/>
</g>
<g>
<polygon points = "337.960, 685.742 232.167, 489.968 0.000, 506.957 0.000, 796.221 "
fill = "none" stroke = "black"/>
</g>
<g>
<polygon points = "0.000, 207.529 141.227, 195.713 340.640, 0.000 0.000, 0.000 "
fill = "none" stroke = "black"/>
</g>
<g>
<polygon points = "733.275, 439.311 604.996, 881.593 655.973, 1000.000 1000.000, 1000.000 1000.000, 523.317 "
fill = "none" stroke = "black"/>
</g>
<g>
<polygon points = "598.270, 261.603 674.318, 304.415 1000.000, 165.431 1000.000, 0.000 517.274, 0.000 "
fill = "none" stroke = "black"/>
</g>
<g>
<polygon points = "141.227, 195.713 283.776, 366.868 490.145, 342.927 598.270, 261.603 517.274, 0.000 340.640, 0.000 "
fill = "none" stroke = "black"/>
</g>
<g>
<polygon points = "490.145, 342.927 419.854, 712.280 604.996, 881.593 733.275, 439.311 674.318, 304.415 598.270, 261.603 "
fill = "none" stroke = "black"/>
</g>
<g>
<polygon points = "337.960, 685.742 419.854, 712.280 490.145, 342.927 283.776, 366.868 232.167, 489.968 "
fill = "none" stroke = "black"/>
</g>
<g>
<polygon points = "674.318, 304.415 733.275, 439.311 1000.000, 523.317 1000.000, 165.431 "
fill = "none" stroke = "black"/>
</g>
<g>
<polygon points = "232.167, 489.968 283.776, 366.868 141.227, 195.713 0.000, 207.529 0.000, 506.957 "
fill = "none" stroke = "black"/>
</g>
<g>
<polygon points = "419.854, 712.280 337.960, 685.742 0.000, 796.221 0.000, 1000.000 655.973, 1000.000 604.996, 881.593 "
fill = "none" stroke = "black"/>
</g>
<g>
<polygon points = "337.960, 685.742 232.167, 489.968 0.000, 506.957 0.000, 796.221 "
fill = "none" stroke = "black"/>
</g>
<g>
<polygon points = "0.000, 207.529 141.227, 195.713 340.640, 0.000 0.000, 0.000 "
fill = "none" stroke = "black"/>
</g>
<g>
<polygon points = "733.275, 439.311 604.996, 881.593 655.973, 1000.000 1000.000, 1000.000 1000.000, 523.317 "
fill = "none" stroke = "black"/>
</g>
<g>
<polygon points = "598.270, 261.603 674.318, 304.415 1000.000, 165.431 1000.000, 0.000 517.274, 0.000 "
fill = "none" stroke = "black"/>
</g>
<g>
<polygon points = "141.227, 195.713 283.776, 366.868 490.145, 342.927 598.270, 261.603 517.274, 0.000 340.640, 0.000 "
fill = "none" stroke = "black"/>
</g>
<g>
<polygon points = "490.145, 342.927 419.854, 712.280 604.996, 881.593 733.275, 439.311 674.318, 304.415 598.270, 261.603 "
fill = "none" stroke = "black"/>
</g>
<g>
<polygon points = "337.960, 685.742 419.854, 712.280 490.145, 342.927 283.776, 366.868 232.167, 489.968 "
fill = "none" stroke = "black"/>
</g>
<g>
<polygon points = "674.318, 304.415 733.275, 439.311 1000.000, 523.317 1000.000, 165.431 "
fill = "none" stroke = "black"/>
</g>
<g>
<polygon points = "232.167, 489.968 283.776, 366.868 141.227, 195.713 0.000, 207.529 0.000, 506.957 "
fill = "none" stroke = "black"/>
</g>
<g>
<polygon points = "419.854, 712.280 337.960, 685.742 0.000, 796.221 0.000, 1000.000 655.973, 1000.000 604.996, 881.593 "
fill = "none" stroke = "black"/>
</g>
<g>
<polygon points = "337.960, 685.742 232.167, 489.968 0.000, 506.957 0.000, 796.221 "
fill = "none" stroke = "black"/>
</g>
<g>
<polygon points = "0.000, 207.529 141.227, 195.713 340.640, 0.000 0.000, 0.000 "
fill = "none" stroke = "black"/>
</g>
<g>
<polygon points = "733.275, 439.311 604.996, 881.593 655.973, 1000.000 1000.000, 1000.000 1000.000, 523.317 "
fill = "none" stroke = "black"/>
</g>
<g>
<polygon points = "598.270, 261.603 674.318, 304.415 1000.000, 165.431 1000.000, 0.000 517.274, 0.000 "
fill = "none" stroke = "black"/>
</g>
<g>
<polygon points = "141.227, 195.713 283.776, 366.868 490.145, 342.927 598.270, 261.603 517.274, 0.000 340.640, 0.000 "
fill = "none" stroke = "black"/>
</g>
<g>
<polygon points = "490.145, 342.927 419.854, 712.280 604.996, 881.593 733.275, 439.311 674.318, 304.415 598.270, 261.603 "
fill = "none" stroke = "black"/>
</g>
<g>
<polygon points = "337.960, 685.742 419.854, 712.280 490.145, 342.927 283.776, 366.868 232.167, 489.968 "
fill = "none" stroke = "black"/>
</g>
<g>
<polygon points = "674.318, 304.415 733.275, 439.311 1000.000, 523.317 1000.000, 165.431 "
fill = "none" stroke = "black"/>
</g>
<g>
<polygon points = "232.167, 489.968 283.776, 366.868 141.227, 195.713 0.000, 207.529 0.000, 506.957 "
fill = "none" stroke = "black"/>
</g>
<g>
<polygon points = "419.854, 712.280 337.960, 685.742 0.000, 796.221 0.000, 1000.000 655.973, 1000.000 604.996, 881.593 "
fill = "none" stroke = "black"/>
</g>
<g>
<polygon points = "337.960, 685.742 232.167, 489.968 0.000, 506.957 0.000, 796.221 "
fill = "none" stroke = "black"/>
</g>
<g>
<polygon points = "0.000, 207.529 141.227, 195.713 340.640, 0.000 0.000, 0.000 "
fill = "none" stroke = "black"/>
</g>
<g>
<polygon points = "733.275, 439.311 604.996, 881.593 655.973, 1000.000 1000.000, 1000.000 1000.000, 523.317 "
fill = "none" stroke = "black"/>
</g>
<g>
<polygon points = "598.270, 261.603 674.318, 304.415 1000.000, 165.431 1000.000, 0.000 517.274, 0.000 "
fill = "none" stroke = "black"/>
</g>
<g>
<polygon points = "141.227, 195.713 283.776, 366.868 490.145, 342.927 598.270, 261.603 517.274, 0.000 340.640, 0.000 "
fill = "none" stroke = "black"/>
</g>
<g>
<polygon points = "490.145, 342.927 419.854, 712.280 604.996, 881.593 733.275, 439.311 674.318, 304.415 598.270, 261.603 "
fill = "none" stroke = "black"/>
</g>
<g>
<polygon points = "337.960, 685.742 419.854, 712.280 490.145, 342.927 283.776, 366.868 232.167, 489.968 "
fill = "none" stroke = "black"/>
</g>
<g>
<polygon points = "674.318, 304.415 733.275, 439.311 1000.000, 523.317 1000.000, 165.431 "
fill = "none" stroke = "black"/>
</g>
<g>
<polygon points = "232.167, 489.968 283.776, 366.868 141.227, 195.713 0.000, 207.529 0.000, 506.957 "
fill = "none" stroke = "black"/>
</g>
<g>
<polygon points = "419.854, 712.280 337.960, 685.742 0.000, 796.221 0.000, 1000.000 655.973, 1000.000 604.996, 881.593 "
fill = "none" stroke = "black"/>
</g>
<g>
<polygon points = "337.960, 685.742 232.167, 489.968 0.000, 506.957 0.000, 796.221 "
fill = "none" stroke = "black"/>
</g>
<g>
<polygon points = "0.000, 207.529 141.227, 195.713 340.640, 0.000 0.000, 0.000 "
fill = "none" stroke = "black"/>
</g>
<g>
<polygon points = "733.275, 439.311 604.996, 881.593 655.973, 1000.000 1000.000, 1000.000 1000.000, 523.317 "
fill = "none" stroke = "black"/>
</g>
<g>
<polygon points = "598.270, 261.603 674.318, 304.415 1000.000, 165.431 1000.000, 0.000 517.274, 0.000 "
fill = "none" stroke = "black"/>
</g>
<g>
<polygon points = "141.227, 195.713 283.776, 366.868 490.145, 342.927 598.270, 261.603 517.274, 0.000 340.640, 0.000 "
fill = "none" stroke = "black"/>
</g>
<g>
<polygon points = "490.145, 342.927 419.854, 712.280 604.996, 881.593 733.275, 439.311 674.318, 304.415 598.270, 261.603 "
fill = "none" stroke = "black"/>
</g>
<g>
<polygon points = "337.960, 685.742 419.854, 712.280 490.145, 342.927 283.776, 366.868 232.167, 489.968 "
fill = "none" stroke = "black"/>
</g>
<g>
<polygon points = "674.318, 304.415 733.275, 439.311 1000.000, 523.317 1000.000, 165.431 "
fill = "none" stroke = "black"/>
</g>
<g>
<polygon points = "232.167, 489.968 283.776, 366.868 141.227, 195.713 0.000, 207.529 0.000, 506.957 "
fill = "none" stroke = "black"/>
</g>
<g>
<polygon points = "419.854, 712.280 337.960, 685.742 0.000, 796.221 0.000, 1000.000 655.973, 1000.000 604.996, 881.593 "
fill = "none" stroke = "black"/>
</g>
<g>
<polygon points = "337.960, 685.742 232.167, 489.968 0.000, 506.957 0.000, 796.221 "
fill = "none" stroke = "black"/>
</g>
<g>
<polygon points = "0.000, 207.529 141.227, 195.713 340.640, 0.000 0.000, 0.000 "
fill = "none" stroke = "black"/>
</g>
<g>
<polygon points = "733.275, 439.311 604.996, 881.593 655.973, 1000.000 1000.000, 1000.000 1000.000, 523.317 "
fill = "none" stroke = "black"/>
</g>
<g>
<polygon points = "598.270, 261.603 674.318, 304.415 1000.000, 165.431 1000.000, 0.000 517.274, 0.000 "
fill = "none" stroke = "black"/>
</g>
<g>
<polygon points = "141.227, 195.713 283.776, 366.868 490.145, 342.927 598.270, 261.603 517.274, 0.000 340.640, 0.000 "
fill = "none" stroke = "black"/>
</g>
<g>
<polygon points = "490.145, 342.927 419.854, 712.280 604.996, 881.593 733.275, 439.311 674.318, 304.415 598.270, 261.603 "
fill = "none" stroke = "black"/>
</g>
<g>
<polygon points = "337.960, 685.742 419.854, 712.280 490.145, 342.927 283.776, 366.868 232.167, 489.968 "
fill = "none" stroke = "black"/>
</g>
<g>
<polygon points = "674.318, 304.415 733.275, 439.311 1000.000, 523.317 1000.000, 165.431 "
fill = "none" stroke = "black"/>
</g>
<g>
<polygon points = "232.167, 489.968 283.776, 366.868 141.227, 195.713 0.000, 207.529 0.000, 506.957 "
fill = "none" stroke = "black"/>
</g>
<g>
<polygon points = "419.854, 712.280 337.960, 685.742 0.000, 796.221 0.000, 1000.000 655.973, 1000.000 604.996, 881.593 "
fill = "none" stroke = "black"/>
</g>
<g>
<polygon points = "337.960, 685.742 232.167, 489.968 0.000, 506.957 0.000, 796.221 "
fill = "none" stroke = "black"/>
</g>
<g>
<polygon points = "0.000, 207.529 141.227, 195.713 340.640, 0.000 0.000, 0.000 "
fill = "none" stroke = "black"/>
</g>
<g>
<polygon points = "733.275, 439.311 604.996, 881.593 655.973, 1000.000 1000.000, 1000.000 1000.000, 523.317 "
fill = "none" stroke = "black"/>
</g>
<g>
<polygon points = "598.270, 261.603 674.318, 304.415 1000.000, 165.431 1000.000, 0.000 517.274, 0.000 "
fill = "none" stroke = "black"/>
</g>
<g>
<polygon points = "141.227, 195.713 283.776, 366.868 490.145, 342.927 598.270, 261.603 517.274, 0.000 340.640, 0.000 "
fill = "none" stroke = "black"/>
</g>
<g>
<polygon points = "490.145, 342.927 419.854, 712.280 604.996, 881.593 733.275, 439.311 674.318, 304.415 598.270, 261.603 "
fill = "none" stroke = "black"/>
</g>
<g>
<polygon points = "337.960, 685.742 419.854, 712.280 490.145, 342.927 283.776, 366.868 232.167, 489.968 "
fill = "none" stroke = "black"/>
</g>
<g>
<polygon points = "674.318, 304.415 733.275, 439.311 1000.000, 523.317 1000.000, 165.431 "
fill = "none" stroke = "black"/>
</g>
<g>
<polygon points = "232.167, 489.968 283.776, 366.868 141.227, 195.713 0.000, 207.529 0.000, 506.957 "
fill = "none" stroke = "black"/>
</g>
<g>
<polygon points = "419.854, 712.280 337.960, 685.742 0.000, 796.221 0.000, 1000.000 655.973, 1000.000 604.996, 881.593 "
fill = "none" stroke = "black"/>
</g>
<g>
<polygon points = "337.960, 685.742 232.167, 489.968 0.000, 506.957 0.000, 796.221 "
fill = "none" stroke = "black"/>
</g>
<g>
<polygon points = "0.000, 207.529 141.227, 195.713 340.640, 0.000 0.000, 0.000 "
fill = "none" stroke = "black"/>
</g>
<g>
<polygon points = "733.275, 439.311 604.996, 881.593 655.973, 1000.000 1000.000, 1000.000 1000.000, 523.317 "
fill = "none" stroke = "black"/>
</g>
<g>
<polygon points = "598.270, 261.603 674.318, 304.415 1000.000, 165.431 1000.000, 0.000 517.274, 0.000 "
fill = "none" stroke = "black"/>
</g>
<g>
<polygon points = "141.227, 195.713 283.776, 366.868 490.145, 342.927 598.270, 261.603 517.274, 0.000 340.640, 0.000 "
fill = "none" stroke = "black"/>
</g>
<g>
<polygon points = "490.145, 342.927 419.854, 712.280 604.996, 881.593 733.275, 439.311 674.318, 304.415 598.270, 261.603 "
fill = "none" stroke = "black"/>
</g>
<g>
<polygon points = "337.960, 685.742 419.854, 712.280 490.145, 342.927 283.776, 366.868 232.167, 489.968 "
fill = "none" stroke = "black"/>
</g>
<g>
<polygon points = "674.318, 304.415 733.275, 439.311 1000.000, 523.317 1000.000, 165.431 "
fill = "none" stroke = "black"/>
</g>
<g>
<polygon points = "232.167, 489.968 283.776, 366.868 141.227, 195.713 0.000, 207.529 0.000, 506.957 "
fill = "none" stroke = "black"/>
</g>
<g>
<polygon points = "419.854, 712.280 337.960, 685.742 0.000, 796.221 0.000, 1000.000 655.973, 1000.000 604.996, 881.593 "
fill = "none" stroke = "black"/>
</g>
<g>
<polygon points = "337.960, 685.742 232.167, 489.968 0.000, 506.957 0.000, 796.221 "
fill = "none" stroke = "black"/>
</g>
<g>
<polygon points = "0.000, 207.529 141.227, 195.713 340.640, 0.000 0.000, 0.000 "
fill = "none" stroke = "black"/>
</g>
<g>
<polygon points = "733.275, 439.311 604.996, 881.593 655.973, 1000.000 1000.000, 1000.000 1000.000, 523.317 "
fill = "none" stroke = "black"/>
</g>
<g>
<polygon points = "598.270, 261.603 674.318, 304.415 1000.000, 165.431 1000.000, 0.000 517.274, 0.000 "
fill = "none" stroke = "black"/>
</g>
<g>
<polygon points = "141.227, 195.713 283.776, 366.868 490.145, 342.927 598.270, 261.603 517.274, 0.000 340.640, 0.000 "
fill = "none" stroke = "black"/>
</g>
<g>
<polygon points = "490.145, 342.927 419.854, 712.280 604.996, 881.593 733.275, 439.311 674.318, 304.415 598.270, 261.603 "
fill = "none" stroke = "black"/>
</g>
<g>
<polygon points = "337.960, 685.742 419.854, 712.280 490.145, 342.927 283.776, 366.868 232.167, 489.968 "
fill = "none" stroke = "black"/>
</g>
<g>
<polygon points = "674.318, 304.415 733.275, 439.311 1000.000, 523.317 1000.000, 165.431 "
fill = "none" stroke = "black"/>
</g>
<g>
<polygon points = "232.167, 489.968 283.776, 366.868 141.227, 195.713 0.000, 207.529 0.000, 506.957 "
fill = "none" stroke = "black"/>
</g>
<g>
<polygon points = "419.854, 712.280 337.960, 685.742 0.000, 796.221 0.000, 1000.000 655.973, 1000.000 604.996, 881.593 "
fill = "none" stroke = "black"/>
</g>
<g>
<polygon points = "337.960, 685.742 232.167, 489.968 0.000, 506.957 0.000, 796.221 "
fill = "none" stroke = "black"/>
</g>
<g>
<polygon points = "0.000, 207.529 141.227, 195.713 340.640, 0.000 0.000, 0.000 "
fill = "none" stroke = "black"/>
</g>
<g>
<polygon points = "733.275, 439.311 604.996, 881.593 655.973, 1000.000 1000.000, 1000.000 1000.000, 523.317 "
fill = "none" stroke = "black"/>
</g>
<g>
<polygon points = "598.270, 261.603 674.318, 304.415 1000.000, 165.431 1000.000, 0.000 517.274, 0.000 "
fill = "none" stroke = "black"/>
</g>
<g>
<polygon points = "141.227, 195.713 283.776, 366.868 490.145, 342.927 598.270, 261.603 517.274, 0.000 340.640, 0.000 "
fill = "none" stroke = "black"/>
</g>
<g>
<polygon points = "490.145, 342.927 419.854, 712.280 604.996, 881.593 733.275, 439.311 674.318, 304.415 598.270, 261.603 "
fill = "none" stroke = "black"/>
</g>
<g>
<polygon points = "337.960, 685.742 419.854, 712.280 490.145, 342.927 283.776, 366.868 232.167, 489.968 "
fill = "none" stroke = "black"/>
</g>
<g>
<polygon points = "674.318, 304.415 733.275, 439.311 1000.000, 523.317 1000.000, 165.431 "
fill = "none" stroke = "black"/>
</g>
<g>
<polygon points = "232.167, 489.968 283.776, 366.868 141.227, 195.713 0.000, 207.529 0.000, 506.957 "
fill = "none" stroke = "black"/>
</g>
<g>
<polygon points = "419.854, 712.280 337.960, 685.742 0.000, 796.221 0.000, 1000.000 655.973, 1000.000 604.996, 881.593 "
fill = "none" stroke = "black"/>
</g>
<g>
<polygon points = "337.960, 685.742 232.167, 489.968 0.000, 506.957 0.000, 796.221 "
fill = "none" stroke = "black"/>
</g>
<g>
<polygon points = "0.000, 207.529 141.227, 195.713 340.640, 0.000 0.000, 0.000 "
fill = "none" stroke = "black"/>
</g>
<g>
<polygon points = "733.275, 439.311 604.996, 881.593 655.973, 1000.000 1000.000, 1000.000 1000.000, 523.317 "
fill = "none" stroke = "black"/>
</g>
<g>
<polygon points = "598.270, 261.603 674.318, 304.415 1000.000, 165.431 1000.000, 0.000 517.274, 0.000 "
fill = "none" stroke = "black"/>
</g>
<g>
<polygon points = "141.227, 195.713 283.776, 366.868 490.145, 342.927 598.270, 261.603 517.274, 0.000 340.640, 0.000 "
fill = "none" stroke = "black"/>
</g>
<g>
<polygon points = "490.145, 342.927 419.854, 712.280 604.996, 881.593 733.275, 439.311 674.318, 304.415 598.270, 261.603 "
fill = "none" stroke = "black"/>
</g>
<g>
<polygon points = "337.960, 685.742 419.854, 712.280 490.145, 342.927 283.776, 366.868 232.167, 489.968 "
fill = "none" stroke = "black"/>
</g>
<g>
<polygon points = "674.318, 304.415 733.275, 439.311 1000.000, 523.317 1000.000, 165.431 "
fill = "none" stroke = "black"/>
</g>
<g>
<polygon points = "232.167, 489.968 283.776, 366.868 141.227, 195.713 0.000, 207.529 0.000, 506.957 "
fill = "none" stroke = "black"/>
</g>
<g>
<polygon points = "419.854, 712.280 337.960, 685.742 0.000, 796.221 0.000, 1000.000 655.973, 1000.000 604.996, 881.593 "
fill = "none" stroke = "black"/>
</g>
<g>
<polygon points = "337.960, 685.742 232.167, 489.968 0.000, 506.957 0.000, 796.221 "
fill = "none" stroke = "black"/>
</g>
<g>
<polygon points = "0.000, 207.529 141.227, 195.713 340.640, 0.000 0.000, 0.000 "
fill = "none" stroke = "black"/>
</g>
<g>
<polygon points = "733.275, 439.311 604.996, 881.593 655.973, 1000.000 1000.000, 1000.000 1000.000, 523.317 "
fill = "none" stroke = "black"/>
</g>
<g>
<polygon points = "598.270, 261.603 674.318, 304.415 1000.000, 165.431 1000.000, 0.000 517.274, 0.000 "
fill = "none" stroke = "black"/>
</g>
<g>
<polygon points = "141.227, 195.713 283.776, 366.868 490.145, 342.927 598.270, 261.603 517.274, 0.000 340.640, 0.000 "
fill = "none" stroke = "black"/>
</g>
<g>
<polygon points = "490.145, 342.927 419.854, 712.280 604.996, 881.593 733.275, 439.311 674.318, 304.415 598.270, 261.603 "
fill = "none" stroke = "black"/>
</g>
<g>
<polygon points = "337.960, 685.742 419.854, 712.280 490.145, 342.927 283.776, 366.868 232.167, 489.968 "
fill = "none" stroke = "black"/>
</g>
<g>
<polygon points = "674.318, 304.415 733.275, 439.311 1000.000, 523.317 1000.000, 165.431 "
fill = "none" stroke = "black"/>
</g>
<g>
<polygon points = "232.167, 489.968 283.776, 366.868 141.227, 195.713 0.000, 207.529 0.000, 506.957 "
fill = "none" stroke = "black"/>
</g>
<g>
<polygon points = "419.854, 712.280 337.960, 685.742 0.000, 796.221 0.000, 1000.000 655.973, 1000.000 604.996, 881.593 "
fill = "none" stroke = "black"/>
</g>
<g>
<polygon points = "337.960, 685.742 232.167, 489.968 0.000, 506.957 0.000, 796.221 "
fill = "none" stroke = "black"/>
</g>
<g>
<polygon points = "0.000, 207.529 141.227, 195.713 340.640, 0.000 0.000, 0.000 "
fill = "none" stroke = "black"/>
</g>
</svg>
