<svg xmlns = "http://www.w3.org/2000/svg" width = "1000" height = "1000">
<g>
<polygon points = "737.739, 659.447 863.071, 684.943 874.100, 686.835 907.646, 649.930 909.456, 647.743 764.105, 588.258 733.946, 603.941 "
fill = "none" stroke = "black"/>
</g>
<g>
<polygon points = "743.105, 64.788 754.529, 140.151 782.641, 158.306 875.238, 29.512 874.294, 0.000 867.859, 0.000 "
fill = "none" stroke = "black"/>
</g>
<g>
<polygon points = "280.271, 358.667 296.947, 275.120 178.938, 223.621 165.325, 294.116 167.832, 298.050 "
fill = "none" stroke = "black"/>
</g>
<g>
<polygon points = "441.336, 649.707 498.927, 609.550 481.961, 513.100 477.113, 502.928 397.915, 559.664 388.172, 610.864 "
fill = "none" stroke = "black"/>
</g>
<g>
<polygon points = "370.494, 522.694 238.796, 541.864 343.716, 632.491 388.172, 610.864 397.915, 559.664 "
fill = "none" stroke = "black"/>
</g>
<g>
<polygon points = "905.882, 308.312 888.145, 424.379 990.804, 336.547 1000.000, 324.643 1000.000, 235.854 "
fill = "none" stroke = "black"/>
</g>
<g>
<polygon points = "19.224, 447.522 155.085, 458.015 152.158, 443.238 72.426, 368.713 0.000, 356.913 0.000, 431.865 "
fill = "none" stroke = "black"/>
</g>
<g>
<polygon points = "290.483, 953.266 242.140, 846.943 237.006, 842.262 194.982, 869.511 203.298, 973.652 223.854, 1000.000 257.803, 1000.000 "
fill = "none" stroke = "black"/>
</g>
<g>
<polygon points = "142.308, 683.721 233.487, 661.163 218.423, 611.880 70.984, 576.883 64.098, 593.464 "
fill = "none" stroke = "black"/>
</g>
<g>
<polygon points = "0.000, 63.487 86.552, 131.639 110.234, 0.000 0.000, 0.000 "
fill = "none" stroke = "black"/>
</g>
<g>
<polygon points = "538.917, 215.217 545.200, 123.631 525.934, 123.958 490.653, 129.065 427.479, 180.365 419.377, 197.786 428.226, 239.400 "
fill = "none" stroke = "black"/>
</g>
<g>
<polygon points = "184.589, 408.840 152.158, 443.238 155.085, 458.015 188.891, 504.436 206.220, 515.850 316.581, 434.036 313.472, 424.271 "
fill = "none" stroke = "black"/>
</g>
<g>
<polygon points = "446.538, 68.781 490.653, 129.065 525.934, 123.958 535.423, 0.000 429.504, 0.000 "
fill = "none" stroke = "black"/>
</g>
<g>
<polygon points = "814.020, 538.267 752.973, 474.932 686.880, 490.166 685.695, 515.425 723.181, 597.495 733.946, 603.941 764.105, 588.258 "
fill = "none" stroke = "black"/>
</g>
<g>
<polygon points = "350.484, 108.902 233.222, 155.477 302.666, 195.061 419.377, 197.786 427.479, 180.365 "
fill = "none" stroke = "black"/>
</g>
<g>
<polygon points = "313.699, 267.094 302.666, 195.061 233.222, 155.477 215.443, 148.853 213.330, 150.334 178.023, 213.935 178.938, 223.621 296.947, 275.120 "
fill = "none" stroke = "black"/>
</g>
<g>
<polygon points = "26.352, 237.388 54.801, 212.937 88.191, 137.253 86.552, 131.639 0.000, 63.487 0.000, 249.560 "
fill = "none" stroke = "black"/>
</g>
<g>
<polygon points = "103.361, 879.926 180.204, 860.041 113.465, 734.293 45.483, 822.537 "
fill = "none" stroke = "black"/>
</g>
<g>
<polygon points = "996.601, 840.289 907.646, 649.930 874.100, 686.835 912.109, 811.849 982.418, 845.463 "
fill = "none" stroke = "black"/>
</g>
<g>
<polygon points = "64.098, 593.464 70.984, 576.883 74.363, 548.859 19.224, 447.522 0.000, 431.865 0.000, 654.328 "
fill = "none" stroke = "black"/>
</g>
<g>
<polygon points = "156.998, 126.628 213.330, 150.334 215.443, 148.853 268.602, 7.289 269.043, 0.000 192.821, 0.000 "
fill = "none" stroke = "black"/>
</g>
<g>
<polygon points = "817.993, 886.584 839.827, 924.010 927.507, 883.398 982.418, 845.463 912.109, 811.849 831.657, 839.291 "
fill = "none" stroke = "black"/>
</g>
<g>
<polygon points = "315.782, 410.466 399.872, 321.174 400.199, 303.951 313.699, 267.094 296.947, 275.120 280.271, 358.667 "
fill = "none" stroke = "black"/>
</g>
<g>
<polygon points = "671.132, 517.745 685.695, 515.425 686.880, 490.166 658.802, 467.056 554.892, 452.492 479.920, 493.888 477.113, 502.928 481.961, 513.100 "
fill = "none" stroke = "black"/>
</g>
<g>
<polygon points = "335.986, 73.486 350.484, 108.902 427.479, 180.365 490.653, 129.065 446.538, 68.781 "
fill = "none" stroke = "black"/>
</g>
<g>
<polygon points = "719.667, 705.643 672.683, 722.243 625.299, 739.734 687.010, 861.023 730.480, 850.703 "
fill = "none" stroke = "black"/>
</g>
<g>
<polygon points = "528.720, 616.462 513.696, 612.324 498.927, 609.550 441.336, 649.707 444.840, 687.147 604.206, 731.651 "
fill = "none" stroke = "black"/>
</g>
<g>
<polygon points = "74.363, 548.859 70.984, 576.883 218.423, 611.880 214.409, 529.922 206.220, 515.850 188.891, 504.436 "
fill = "none" stroke = "black"/>
</g>
<g>
<polygon points = "795.079, 792.708 831.657, 839.291 912.109, 811.849 874.100, 686.835 863.071, 684.943 "
fill = "none" stroke = "black"/>
</g>
<g>
<polygon points = "941.107, 635.432 909.456, 647.743 907.646, 649.930 996.601, 840.289 1000.000, 839.091 1000.000, 643.276 "
fill = "none" stroke = "black"/>
</g>
<g>
<polygon points = "990.804, 336.547 888.145, 424.379 868.607, 452.473 874.464, 504.759 928.374, 527.865 "
fill = "none" stroke = "black"/>
</g>
<g>
<polygon points = "852.203, 527.134 814.020, 538.267 764.105, 588.258 909.456, 647.743 941.107, 635.432 "
fill = "none" stroke = "black"/>
</g>
<g>
<polygon points = "302.666, 195.061 313.699, 267.094 400.199, 303.951 428.226, 239.400 419.377, 197.786 "
fill = "none" stroke = "black"/>
</g>
<g>
<polygon points = "928.374, 527.865 874.464, 504.759 852.203, 527.134 941.107, 635.432 1000.000, 643.276 1000.000, 589.466 "
fill = "none" stroke = "black"/>
</g>
<g>
<polygon points = "1000.000, 193.238 1000.000, 0.000 896.544, 0.000 "
fill = "none" stroke = "black"/>
</g>
<g>
<polygon points = "823.444, 315.044 808.211, 345.561 806.950, 357.647 810.831, 400.134 868.607, 452.473 888.145, 424.379 905.882, 308.312 "
fill = "none" stroke = "black"/>
</g>
<g>
<polygon points = "435.232, 716.461 525.980, 803.399 541.471, 799.763 611.250, 736.123 604.206, 731.651 444.840, 687.147 "
fill = "none" stroke = "black"/>
</g>
<g>
<polygon points = "214.409, 529.922 218.423, 611.880 233.487, 661.163 255.365, 676.524 334.048, 645.022 343.716, 632.491 238.796, 541.864 "
fill = "none" stroke = "black"/>
</g>
<g>
<polygon points = "105.262, 716.815 110.522, 725.459 241.300, 766.394 258.800, 711.230 255.365, 676.524 233.487, 661.163 142.308, 683.721 "
fill = "none" stroke = "black"/>
</g>
<g>
<polygon points = "332.852, 932.852 396.097, 926.005 432.222, 874.905 430.692, 849.698 397.239, 774.575 373.044, 783.868 361.570, 800.149 "
fill = "none" stroke = "black"/>
</g>
<g>
<polygon points = "203.298, 973.652 194.982, 869.511 180.204, 860.041 103.361, 879.926 66.711, 939.098 "
fill = "none" stroke = "black"/>
</g>
<g>
<polygon points = "632.528, 42.147 743.105, 64.788 867.859, 0.000 630.286, 0.000 "
fill = "none" stroke = "black"/>
</g>
<g>
<polygon points = "618.050, 608.430 528.720, 616.462 604.206, 731.651 611.250, 736.123 625.299, 739.734 672.683, 722.243 "
fill = "none" stroke = "black"/>
</g>
<g>
<polygon points = "373.044, 783.868 397.239, 774.575 398.250, 770.189 334.048, 645.022 255.365, 676.524 258.800, 711.230 "
fill = "none" stroke = "black"/>
</g>
<g>
<polygon points = "511.254, 837.869 525.980, 803.399 435.232, 716.461 398.250, 770.189 397.239, 774.575 430.692, 849.698 "
fill = "none" stroke = "black"/>
</g>
<g>
<polygon points = "829.604, 938.328 666.456, 920.704 654.487, 932.782 706.037, 1000.000 808.964, 1000.000 "
fill = "none" stroke = "black"/>
</g>
<g>
<polygon points = "26.352, 237.388 0.000, 249.560 0.000, 356.913 72.426, 368.713 113.709, 308.313 "
fill = "none" stroke = "black"/>
</g>
<g>
<polygon points = "927.507, 883.398 839.827, 924.010 829.604, 938.328 808.964, 1000.000 931.244, 1000.000 "
fill = "none" stroke = "black"/>
</g>
<g>
<polygon points = "241.300, 766.394 110.522, 725.459 113.465, 734.293 180.204, 860.041 194.982, 869.511 237.006, 842.262 "
fill = "none" stroke = "black"/>
</g>
<g>
<polygon points = "722.688, 280.749 669.749, 392.491 672.532, 431.312 806.950, 357.647 808.211, 345.561 "
fill = "none" stroke = "black"/>
</g>
<g>
<polygon points = "652.788, 272.760 706.790, 237.182 709.006, 232.600 657.731, 157.019 544.465, 220.159 544.616, 226.887 "
fill = "none" stroke = "black"/>
</g>
<g>
<polygon points = "74.363, 548.859 188.891, 504.436 155.085, 458.015 19.224, 447.522 "
fill = "none" stroke = "black"/>
</g>
<g>
<polygon points = "45.483, 822.537 113.465, 734.293 110.522, 725.459 105.262, 716.815 0.000, 689.069 0.000, 805.092 "
fill = "none" stroke = "black"/>
</g>
<g>
<polygon points = "852.203, 527.134 874.464, 504.759 868.607, 452.473 810.831, 400.134 752.973, 474.932 814.020, 538.267 "
fill = "none" stroke = "black"/>
</g>
<g>
<polygon points = "66.711, 939.098 103.361, 879.926 45.483, 822.537 0.000, 805.092 0.000, 947.951 "
fill = "none" stroke = "black"/>
</g>
<g>
<polygon points = "178.023, 213.935 213.330, 150.334 156.998, 126.628 88.191, 137.253 54.801, 212.937 "
fill = "none" stroke = "black"/>
</g>
<g>
<polygon points = "996.601, 840.289 982.418, 845.463 927.507, 883.398 931.244, 1000.000 1000.000, 1000.000 1000.000, 839.091 "
fill = "none" stroke = "black"/>
</g>
<g>
<polygon points = "203.298, 973.652 66.711, 939.098 0.000, 947.951 0.000, 1000.000 223.854, 1000.000 "
fill = "none" stroke = "black"/>
</g>
<g>
<polygon points = "538.373, 945.251 613.311, 930.248 511.254, 837.869 430.692, 849.698 432.222, 874.905 "
fill = "none" stroke = "black"/>
</g>
<g>
<polygon points = "268.602, 7.289 215.443, 148.853 233.222, 155.477 350.484, 108.902 335.986, 73.486 "
fill = "none" stroke = "black"/>
</g>
<g>
<polygon points = "346.216, 454.571 316.581, 434.036 206.220, 515.850 214.409, 529.922 238.796, 541.864 370.494, 522.694 "
fill = "none" stroke = "black"/>
</g>
<g>
<polygon points = "444.144, 435.050 444.501, 432.643 410.595, 333.174 399.872, 321.174 315.782, 410.466 313.472, 424.271 316.581, 434.036 346.216, 454.571 "
fill = "none" stroke = "black"/>
</g>
<g>
<polygon points = "528.376, 285.787 544.616, 226.887 544.465, 220.159 538.917, 215.217 428.226, 239.400 400.199, 303.951 399.872, 321.174 410.595, 333.174 "
fill = "none" stroke = "black"/>
</g>
<g>
<polygon points = "990.804, 336.547 928.374, 527.865 1000.000, 589.466 1000.000, 324.643 "
fill = "none" stroke = "black"/>
</g>
<g>
<polygon points = "672.532, 431.312 658.802, 467.056 686.880, 490.166 752.973, 474.932 810.831, 400.134 806.950, 357.647 "
fill = "none" stroke = "black"/>
</g>
<g>
<polygon points = "657.731, 145.660 657.731, 157.019 709.006, 232.600 814.612, 219.164 814.846, 205.829 782.641, 158.306 754.529, 140.151 "
fill = "none" stroke = "black"/>
</g>
<g>
<polygon points = "902.102, 140.648 814.846, 205.829 814.612, 219.164 832.763, 234.075 1000.000, 229.329 1000.000, 220.795 "
fill = "none" stroke = "black"/>
</g>
<g>
<polygon points = "632.528, 42.147 623.197, 74.089 657.731, 145.660 754.529, 140.151 743.105, 64.788 "
fill = "none" stroke = "black"/>
</g>
<g>
<polygon points = "671.132, 517.745 481.961, 513.100 498.927, 609.550 513.696, 612.324 "
fill = "none" stroke = "black"/>
</g>
<g>
<polygon points = "902.102, 140.648 875.238, 29.512 782.641, 158.306 814.846, 205.829 "
fill = "none" stroke = "black"/>
</g>
<g>
<polygon points = "672.730, 889.294 687.010, 861.023 625.299, 739.734 611.250, 736.123 541.471, 799.763 "
fill = "none" stroke = "black"/>
</g>
<g>
<polygon points = "113.709, 308.313 72.426, 368.713 152.158, 443.238 184.589, 408.840 167.832, 298.050 165.325, 294.116 "
fill = "none" stroke = "black"/>
</g>
<g>
<polygon points = "361.570, 800.149 373.044, 783.868 258.800, 711.230 241.300, 766.394 237.006, 842.262 242.140, 846.943 "
fill = "none" stroke = "black"/>
</g>
<g>
<polygon points = "613.311, 930.248 654.487, 932.782 666.456, 920.704 672.730, 889.294 541.471, 799.763 525.980, 803.399 511.254, 837.869 "
fill = "none" stroke = "black"/>
</g>
<g>
<polygon points = "525.934, 123.958 545.200, 123.631 623.197, 74.089 632.528, 42.147 630.286, 0.000 535.423, 0.000 "
fill = "none" stroke = "black"/>
</g>
<g>
<polygon points = "537.403, 349.623 528.376, 285.787 410.595, 333.174 444.501, 432.643 "
fill = "none" stroke = "black"/>
</g>
<g>
<polygon points = "479.920, 493.888 444.144, 435.050 346.216, 454.571 370.494, 522.694 397.915, 559.664 477.113, 502.928 "
fill = "none" stroke = "black"/>
</g>
<g>
<polygon points = "398.250, 770.189 435.232, 716.461 444.840, 687.147 441.336, 649.707 388.172, 610.864 343.716, 632.491 334.048, 645.022 "
fill = "none" stroke = "black"/>
</g>
<g>
<polygon points = "396.097, 926.005 332.852, 932.852 290.483, 953.266 257.803, 1000.000 459.880, 1000.000 "
fill = "none" stroke = "black"/>
</g>
<g>
<polygon points = "657.731, 145.660 623.197, 74.089 545.200, 123.631 538.917, 215.217 544.465, 220.159 657.731, 157.019 "
fill = "none" stroke = "black"/>
</g>
<g>
<polygon points = "618.050, 608.430 723.181, 597.495 685.695, 515.425 671.132, 517.745 513.696, 612.324 528.720, 616.462 "
fill = "none" stroke = "black"/>
</g>
<g>
<polygon points = "184.589, 408.840 313.472, 424.271 315.782, 410.466 280.271, 358.667 167.832, 298.050 "
fill = "none" stroke = "black"/>
</g>
<g>
<polygon points = "654.487, 932.782 613.311, 930.248 538.373, 945.251 509.719, 1000.000 706.037, 1000.000 "
fill = "none" stroke = "black"/>
</g>
<g>
<polygon points = "706.790, 237.182 652.788, 272.760 589.653, 349.271 669.749, 392.491 722.688, 280.749 "
fill = "none" stroke = "black"/>
</g>
<g>
<polygon points = "332.852, 932.852 361.570, 800.149 242.140, 846.943 290.483, 953.266 "
fill = "none" stroke = "black"/>
</g>
<g>
<polygon points = "567.634, 365.615 589.653, 349.271 652.788, 272.760 544.616, 226.887 528.376, 285.787 537.403, 349.623 "
fill = "none" stroke = "black"/>
</g>
<g>
<polygon points = "672.730, 889.294 666.456, 920.704 829.604, 938.328 839.827, 924.010 817.993, 886.584 730.480, 850.703 687.010, 861.023 "
fill = "none" stroke = "black"/>
</g>
<g>
<polygon points = "589.653, 349.271 567.634, 365.615 554.892, 452.492 658.802, 467.056 672.532, 431.312 669.749, 392.491 "
fill = "none" stroke = "black"/>
</g>
<g>
<polygon points = "538.373, 945.251 432.222, 874.905 396.097, 926.005 459.880, 1000.000 509.719, 1000.000 "
fill = "none" stroke = "black"/>
</g>
<g>
<polygon points = "832.763, 234.075 823.444, 315.044 905.882, 308.312 1000.000, 235.854 1000.000, 229.329 "
fill = "none" stroke = "black"/>
</g>
<g>
<polygon points = "105.262, 716.815 142.308, 683.721 64.098, 593.464 0.000, 654.328 0.000, 689.069 "
fill = "none" stroke = "black"/>
</g>
<g>
<polygon points = "567.634, 365.615 537.403, 349.623 444.501, 432.643 444.144, 435.050 479.920, 493.888 554.892, 452.492 "
fill = "none" stroke = "black"/>
</g>
<g>
<polygon points = "817.993, 886.584 831.657, 839.291 795.079, 792.708 721.191, 704.207 719.667, 705.643 730.480, 850.703 "
fill = "none" stroke = "black"/>
</g>
<g>
<polygon points = "86.552, 131.639 88.191, 137.253 156.998, 126.628 192.821, 0.000 110.234, 0.000 "
fill = "none" stroke = "black"/>
</g>
<g>
<polygon points = "721.191, 704.207 795.079, 792.708 863.071, 684.943 737.739, 659.447 "
fill = "none" stroke = "black"/>
</g>
<g>
<polygon points = "268.602, 7.289 335.986, 73.486 446.538, 68.781 429.504, 0.000 269.043, 0.000 "
fill = "none" stroke = "black"/>
</g>
<g>
<polygon points = "832.763, 234.075 814.612, 219.164 709.006, 232.600 706.790, 237.182 722.688, 280.749 808.211, 345.561 823.444, 315.044 "
fill = "none" stroke = "black"/>
</g>
<g>
<polygon points = "723.181, 597.495 618.050, 608.430 672.683, 722.243 719.667, 705.643 721.191, 704.207 737.739, 659.447 733.946, 603.941 "
fill = "none" stroke = "black"/>
</g>
<g>
<polygon points = "875.238, 29.512 902.102, 140.648 1000.000, 220.795 1000.000, 193.238 896.544, 0.000 874.294, 0.000 "
fill = "none" stroke = "black"/>
</g>
<g>
<polygon points = "178.023, 213.935 54.801, 212.937 26.352, 237.388 113.709, 308.313 165.325, 294.116 178.938, 223.621 "
fill = "none" stroke = "black"/>
</g>
<g>
<circle cx = "840.188" cy = "605.617" r = "3" />
<circle cx = "798.440" cy = "88.353" r = "3" />
<circle cx = "335.223" cy = "231.770" r = "3" />
<circle cx = "553.970" cy = "522.603" r = "3" />
<circle cx = "364.784" cy = "486.599" r = "3" />
<circle cx = "916.195" cy = "364.288" r = "3" />
<circle cx = "141.603" cy = "393.031" r = "3" />
<circle cx = "242.887" cy = "862.768" r = "3" />
<circle cx = "156.679" cy = "599.056" r = "3" />
<circle cx = "108.809" cy = "1.075" r = "3" />
<circle cx = "512.932" cy = "160.888" r = "3" />
<circle cx = "296.032" cy = "362.448" r = "3" />
<circle cx = "493.583" cy = "27.225" r = "3" />
<circle cx = "771.358" cy = "473.255" r = "3" />
<circle cx = "400.229" cy = "108.471" r = "3" />
<circle cx = "352.458" cy = "192.275" r = "3" />
<circle cx = "69.755" cy = "50.673" r = "3" />
<circle cx = "86.056" cy = "807.786" r = "3" />
<circle cx = "890.233" cy = "651.107" r = "3" />
<circle cx = "20.023" cy = "542.298" r = "3" />
<circle cx = "238.280" cy = "29.366" r = "3" />
<circle cx = "850.920" cy = "733.334" r = "3" />
<circle cx = "375.207" cy = "239.751" r = "3" />
<circle cx = "667.724" cy = "468.394" r = "3" />
<circle cx = "437.638" cy = "68.165" r = "3" />
<circle cx = "720.952" cy = "715.707" r = "3" />
<circle cx = "639.979" cy = "645.951" r = "3" />
<circle cx = "165.974" cy = "559.895" r = "3" />
<circle cx = "829.201" cy = "669.663" r = "3" />
<circle cx = "893.372" cy = "649.640" r = "3" />
<circle cx = "956.468" cy = "411.360" r = "3" />
<circle cx = "858.676" cy = "560.440" r = "3" />
<circle cx = "398.437" cy = "185.233" r = "3" />
<circle cx = "910.972" cy = "517.509" r = "3" />
<circle cx = "950.252" cy = "79.872" r = "3" />
<circle cx = "881.062" cy = "358.919" r = "3" />
<circle cx = "619.596" cy = "718.941" r = "3" />
<circle cx = "307.458" cy = "552.966" r = "3" />
<circle cx = "187.533" cy = "723.765" r = "3" />
<circle cx = "416.501" cy = "830.393" r = "3" />
<circle cx = "103.171" cy = "873.925" r = "3" />
<circle cx = "760.475" cy = "15.248" r = "3" />
<circle cx = "684.445" cy = "616.812" r = "3" />
<circle cx = "368.664" cy = "705.840" r = "3" />
<circle cx = "584.489" cy = "755.587" r = "3" />
<circle cx = "732.149" cy = "874.525" r = "3" />
<circle cx = "164.102" cy = "254.929" r = "3" />
<circle cx = "950.104" cy = "947.471" r = "3" />
<circle cx = "176.211" cy = "759.938" r = "3" />
<circle cx = "732.654" cy = "343.436" r = "3" />
<circle cx = "639.458" cy = "240.265" r = "3" />
<circle cx = "134.902" cy = "479.790" r = "3" />
<circle cx = "69.906" cy = "795.345" r = "3" />
<circle cx = "819.677" cy = "426.681" r = "3" />
<circle cx = "51.939" cy = "842.193" r = "3" />
<circle cx = "204.329" cy = "110.044" r = "3" />
<circle cx = "997.799" cy = "945.942" r = "3" />
<circle cx = "72.329" cy = "995.838" r = "3" />
<circle cx = "593.892" cy = "819.628" r = "3" />
<circle cx = "391.690" cy = "86.973" r = "3" />
<circle cx = "359.095" cy = "447.515" r = "3" />
<circle cx = "452.576" cy = "312.613" r = "3" />
<circle cx = "530.808" cy = "242.706" r = "3" />
<circle cx = "992.228" cy = "423.029" r = "3" />
<circle cx = "747.809" cy = "371.090" r = "3" />
<circle cx = "747.803" cy = "166.761" r = "3" />
<circle cx = "873.271" cy = "168.962" r = "3" />
<circle cx = "743.811" cy = "96.634" r = "3" />
<circle cx = "666.880" cy = "502.741" r = "3" />
<circle cx = "830.012" cy = "111.051" r = "3" />
<circle cx = "649.707" cy = "751.956" r = "3" />
<circle cx = "229.137" cy = "299.380" r = "3" />
<circle cx = "328.777" cy = "768.572" r = "3" />
<circle cx = "633.072" cy = "776.344" r = "3" />
<circle cx = "510.686" cy = "28.534" r = "3" />
<circle cx = "546.107" cy = "280.731" r = "3" />
<circle cx = "471.483" cy = "407.460" r = "3" />
<circle cx = "450.918" cy = "663.649" r = "3" />
<circle cx = "434.513" cy = "996.769" r = "3" />
<circle cx = "598.481" cy = "166.757" r = "3" />
<circle cx = "675.476" cy = "517.050" r = "3" />
<circle cx = "304.956" cy = "287.913" r = "3" />
<circle cx = "621.823" cy = "959.136" r = "3" />
<circle cx = "695.984" cy = "326.064" r = "3" />
<circle cx = "347.116" cy = "815.378" r = "3" />
<circle cx = "627.158" cy = "269.271" r = "3" />
<circle cx = "740.438" cy = "797.787" r = "3" />
<circle cx = "684.757" cy = "346.870" r = "3" />
<circle cx = "532.441" cy = "912.356" r = "3" />
<circle cx = "877.384" cy = "313.875" r = "3" />
<circle cx = "111.276" cy = "638.399" r = "3" />
<circle cx = "593.211" cy = "333.443" r = "3" />
<circle cx = "775.767" cy = "711.621" r = "3" />
<circle cx = "189.751" cy = "15.637" r = "3" />
<circle cx = "827.391" cy = "668.521" r = "3" />
<circle cx = "436.497" cy = "41.363" r = "3" />
<circle cx = "764.871" cy = "300.925" r = "3" />
<circle cx = "685.786" cy = "616.168" r = "3" />
<circle cx = "943.051" cy = "83.727" r = "3" />
<circle cx = "203.548" cy = "206.343" r = "3" />
</g>
</svg>
